<?xml version="1.0" standalone="no"?>
 <!DOCTYPE svg PUBLIC "-//W3C//DTD SVG 1.1//EN"
 "http://www.w3.org/Graphics/SVG/1.1/DTD/svg11.dtd">
<svg
  xmlns:svg="http://www.w3.org/2000/svg"
  xmlns="http://www.w3.org/2000/svg"
  xmlns:xlink="http://www.w3.org/1999/xlink"
  xmlns:inkscape="http://www.inkscape.org/namespaces/inkscape"
  version="1.1"
  width="99.9998mm" height="89.9922mm" viewBox="0.0000 0.0000 99.9998 89.9922">
<title>SVG Image created as mono-top.svg date 2026-09-18T01:36:13 </title>
  <desc>Image generated by PCBNEW </desc>
<g style="fill:#000000; fill-opacity:1.0000;stroke:#000000; stroke-opacity:1.0000;
stroke-linecap:round; stroke-linejoin:round;"
 transform="translate(0 0) scale(1 1)">
</g>
<g style="fill:#C83434; fill-opacity:1.0000; stroke:none;">
<circle cx="87.0000" cy="12.0000" r="1.0000" />
<circle cx="72.0000" cy="12.0000" r="1.0000" />
<circle cx="32.0000" cy="41.0000" r="1.0000" />
<circle cx="37.0000" cy="41.0000" r="1.0000" />
<circle cx="10.0000" cy="45.0000" r="1.5000" />
<circle cx="10.0000" cy="65.0000" r="1.5000" />
<circle cx="10.0000" cy="76.0000" r="1.5000" />
<circle cx="15.0800" cy="76.0000" r="1.5000" />
<circle cx="74.0000" cy="52.0000" r="0.9000" />
<circle cx="81.5000" cy="52.0000" r="0.9000" />
<circle cx="55.0000" cy="19.0000" r="0.9000" />
<circle cx="47.5000" cy="19.0000" r="0.9000" />
<circle cx="94.0000" cy="27.0000" r="1.5000" />
<circle cx="94.0000" cy="32.0800" r="1.5000" />
<circle cx="49.0000" cy="36.0000" r="1.0000" />
<circle cx="54.0000" cy="36.0000" r="1.0000" />
<circle cx="68.0000" cy="12.0000" r="0.9000" />
<circle cx="60.5000" cy="12.0000" r="0.9000" />
<circle cx="84.0000" cy="27.0000" r="0.9000" />
<circle cx="84.0000" cy="34.5000" r="0.9000" />
<circle cx="12.0000" cy="25.0000" r="1.2000" />
<circle cx="32.0000" cy="25.0000" r="1.2000" />
<circle cx="62.0000" cy="24.0000" r="0.9000" />
<circle cx="54.5000" cy="24.0000" r="0.9000" />
<circle cx="68.0000" cy="35.0000" r="1.0000" />
<circle cx="63.0000" cy="35.0000" r="1.0000" />
<circle cx="8.0000" cy="18.0000" r="0.9000" />
<circle cx="13.0000" cy="18.0000" r="0.9000" />
<circle cx="88.0000" cy="58.0000" r="0.9000" />
<circle cx="88.0000" cy="60.5400" r="0.9000" />
<circle cx="39.0000" cy="14.0000" r="0.8250" />
<circle cx="40.7000" cy="8.9200" r="0.8250" />
<circle cx="42.4000" cy="14.0000" r="0.8250" />
<circle cx="44.1000" cy="8.9200" r="0.8250" />
<circle cx="45.8000" cy="14.0000" r="0.8250" />
<circle cx="47.5000" cy="8.9200" r="0.8250" />
<circle cx="49.2000" cy="14.0000" r="0.8250" />
<circle cx="50.9000" cy="8.9200" r="0.8250" />
<circle cx="52.6000" cy="14.0000" r="0.8250" />
<circle cx="54.3000" cy="8.9200" r="0.8250" />
<circle cx="56.0000" cy="14.0000" r="0.8250" />
<circle cx="23.0000" cy="45.0000" r="1.2000" />
<circle cx="23.0000" cy="65.0000" r="1.2000" />
<circle cx="68.0000" cy="25.0000" r="0.9000" />
<circle cx="68.0000" cy="17.5000" r="0.9000" />
<circle cx="32.0000" cy="19.0000" r="0.9000" />
<circle cx="37.0000" cy="19.0000" r="0.9000" />
<circle cx="74.0000" cy="63.0000" r="1.0000" />
<circle cx="77.5000" cy="63.0000" r="1.0000" />
<circle cx="40.0000" cy="77.0000" r="1.5000" />
<circle cx="45.0800" cy="77.0000" r="1.5000" />
<circle cx="50.1600" cy="77.0000" r="1.5000" />
<circle cx="34.0000" cy="13.0000" r="0.9000" />
<circle cx="34.0000" cy="8.0000" r="0.9000" />
<circle cx="20.0000" cy="40.0000" r="0.4500" />
<circle cx="20.0000" cy="49.0000" r="0.4500" />
<circle cx="58.0000" cy="18.0000" r="0.4500" />
</g>
<g style="fill:none;
stroke:#C83434; stroke-width:3.0000; stroke-opacity:1;
stroke-linecap:round; stroke-linejoin:round;">
<path d="M34.0000 71.0000
L34.0000 58.0000
" />
<path d="M40.0000 77.0000
L34.0000 71.0000
" />
</g>
<g style="fill:none;
stroke:#C83434; stroke-width:2.0000; stroke-opacity:1;
stroke-linecap:round; stroke-linejoin:round;">
<path d="M27.0000 19.0000
L32.0000 19.0000
" />
</g>
<g style="fill:none;
stroke:#C83434; stroke-width:1.0000; stroke-opacity:1;
stroke-linecap:round; stroke-linejoin:round;">
<path d="M45.8000 12.0000
L45.8000 14.0000
" />
</g>
<g style="fill:none;
stroke:#C83434; stroke-width:3.0000; stroke-opacity:1;
stroke-linecap:round; stroke-linejoin:round;">
<path d="M32.0000 56.0000
L32.0000 41.0000
" />
</g>
<g style="fill:none;
stroke:#C83434; stroke-width:2.0000; stroke-opacity:1;
stroke-linecap:round; stroke-linejoin:round;">
<path d="M27.0000 29.0000
L27.0000 19.0000
" />
</g>
<g style="fill:none;
stroke:#C83434; stroke-width:1.0000; stroke-opacity:1;
stroke-linecap:round; stroke-linejoin:round;">
<path d="M39.0000 12.0000
L45.8000 12.0000
" />
</g>
<g style="fill:none;
stroke:#C83434; stroke-width:2.0000; stroke-opacity:1;
stroke-linecap:round; stroke-linejoin:round;">
<path d="M32.0000 41.0000
L29.0000 38.0000
" />
</g>
<g style="fill:none;
stroke:#C83434; stroke-width:3.0000; stroke-opacity:1;
stroke-linecap:round; stroke-linejoin:round;">
<path d="M34.0000 58.0000
L32.0000 56.0000
" />
</g>
<g style="fill:none;
stroke:#C83434; stroke-width:1.0000; stroke-opacity:1;
stroke-linecap:round; stroke-linejoin:round;">
<path d="M39.0000 14.0000
L39.0000 12.0000
" />
</g>
<g style="fill:none;
stroke:#C83434; stroke-width:2.0000; stroke-opacity:1;
stroke-linecap:round; stroke-linejoin:round;">
<path d="M29.0000 31.0000
L27.0000 29.0000
" />
<path d="M29.0000 38.0000
L29.0000 31.0000
" />
</g>
<g style="fill:none;
stroke:#C83434; stroke-width:0.3500; stroke-opacity:1;
stroke-linecap:round; stroke-linejoin:round;">
<path d="M42.4000 14.0000
L47.5000 19.0000
" />
</g>
<g style="fill:none;
stroke:#C83434; stroke-width:3.0000; stroke-opacity:1;
stroke-linecap:round; stroke-linejoin:round;">
<path d="M56.0000 71.0000
L56.0000 44.0000
" />
<path d="M56.0000 44.0000
L54.0000 36.0000
" />
<path d="M50.1600 77.0000
L56.0000 71.0000
" />
</g>
<g style="fill:none;
stroke:#C83434; stroke-width:1.0000; stroke-opacity:1;
stroke-linecap:round; stroke-linejoin:round;">
<path d="M37.0000 19.0000
L37.0000 22.0000
" />
<path d="M34.0000 16.0000
L37.0000 16.0000
" />
<path d="M34.0000 13.0000
L34.0000 16.0000
" />
<path d="M20.0000 40.0000
L20.0000 49.0000
" />
<path d="M50.0000 22.0000
L50.0000 16.0000
" />
<path d="M37.0000 22.0000
L50.0000 22.0000
" />
<path d="M37.0000 16.0000
L37.0000 19.0000
" />
<path d="M50.0000 16.0000
L49.2000 14.0000
" />
</g>
<g style="fill:none;
stroke:#C83434; stroke-width:0.3500; stroke-opacity:1;
stroke-linecap:round; stroke-linejoin:round;">
<path d="M56.0000 29.0000
L58.5000 40.0000
" />
<path d="M58.0000 18.0000
L56.0000 29.0000
" />
<path d="M58.5000 47.0000
L74.0000 52.0000
" />
<path d="M74.0000 52.0000
L77.5000 63.0000
" />
<path d="M58.5000 40.0000
L58.5000 47.0000
" />
<path d="M55.0000 19.0000
L54.5000 24.0000
" />
<path d="M52.6000 14.0000
L55.0000 19.0000
" />
<path d="M54.3000 8.9200
L60.5000 12.0000
" />
<path d="M60.5000 12.0000
L68.0000 17.5000
" />
<path d="M84.0000 34.5000
L89.0000 34.5000
" />
<path d="M91.0000 32.0000
L94.0000 27.0000
" />
<path d="M87.0000 12.0000
L91.0000 12.0000
" />
<path d="M89.0000 34.5000
L91.0000 32.0000
" />
<path d="M91.0000 12.0000
L91.0000 24.0000
" />
<path d="M91.0000 24.0000
L94.0000 27.0000
" />
</g>
<g style="fill:none;
stroke:#C83434; stroke-width:3.0000; stroke-opacity:1;
stroke-linecap:round; stroke-linejoin:round;">
<path d="M10.0000 65.0000
L10.0000 76.0000
" />
<path d="M10.0000 65.0000
L23.0000 65.0000
" />
</g>
<g style="fill:none;
stroke:#C83434; stroke-width:0.3500; stroke-opacity:1;
stroke-linecap:round; stroke-linejoin:round;">
<path d="M72.0000 12.0000
L68.0000 12.0000
" />
<path d="M62.0000 24.0000
L63.0000 35.0000
" />
</g>
<g style="fill:none;
stroke:#C83434; stroke-width:0.8000; stroke-opacity:1;
stroke-linecap:round; stroke-linejoin:round;">
<path d="M12.0000 25.0000
L13.0000 18.0000
" />
</g>
<g style="fill:none;
stroke:#C83434; stroke-width:0.3500; stroke-opacity:1;
stroke-linecap:round; stroke-linejoin:round;">
<path d="M81.5000 52.0000
L88.0000 58.0000
" />
</g>
<g style="fill:none;
stroke:#D0D2CD; stroke-width:0.0500; stroke-opacity:1;
stroke-linecap:round; stroke-linejoin:round;">
<path d="M0.0000 0.0000
L100.0000 0.0000
" />
<path d="M0.0000 90.0000
L0.0000 0.0000
" />
<path d="M100.0000 0.0000
L100.0000 90.0000
" />
<path d="M100.0000 90.0000
L0.0000 90.0000
" />
</g>
<g style="fill:#FFFFFF; fill-opacity:1.0000; stroke:none;">
<circle cx="20.0000" cy="40.0000" r="0.2000" />
<circle cx="20.0000" cy="49.0000" r="0.2000" />
<circle cx="58.0000" cy="18.0000" r="0.2000" />
</g>
<g style="fill:#FFFFFF; fill-opacity:1.0000; stroke:none;">
<circle cx="87.0000" cy="12.0000" r="0.5000" />
</g>
<g style="fill:#FFFFFF; fill-opacity:1.0000; stroke:none;">
<circle cx="72.0000" cy="12.0000" r="0.5000" />
</g>
<g style="fill:#FFFFFF; fill-opacity:1.0000; stroke:none;">
<circle cx="32.0000" cy="41.0000" r="0.4500" />
</g>
<g style="fill:#FFFFFF; fill-opacity:1.0000; stroke:none;">
<circle cx="37.0000" cy="41.0000" r="0.4500" />
</g>
<g style="fill:#FFFFFF; fill-opacity:1.0000; stroke:none;">
<circle cx="10.0000" cy="45.0000" r="0.6500" />
</g>
<g style="fill:#FFFFFF; fill-opacity:1.0000; stroke:none;">
<circle cx="10.0000" cy="65.0000" r="0.6500" />
</g>
<g style="fill:#FFFFFF; fill-opacity:1.0000; stroke:none;">
<circle cx="10.0000" cy="76.0000" r="0.6500" />
</g>
<g style="fill:#FFFFFF; fill-opacity:1.0000; stroke:none;">
<circle cx="15.0800" cy="76.0000" r="0.6500" />
</g>
<g style="fill:#FFFFFF; fill-opacity:1.0000; stroke:none;">
<circle cx="74.0000" cy="52.0000" r="0.4000" />
</g>
<g style="fill:#FFFFFF; fill-opacity:1.0000; stroke:none;">
<circle cx="81.5000" cy="52.0000" r="0.4000" />
</g>
<g style="fill:#FFFFFF; fill-opacity:1.0000; stroke:none;">
<circle cx="55.0000" cy="19.0000" r="0.4000" />
</g>
<g style="fill:#FFFFFF; fill-opacity:1.0000; stroke:none;">
<circle cx="47.5000" cy="19.0000" r="0.4000" />
</g>
<g style="fill:#000000; fill-opacity:1.0000; stroke:none;">
<circle cx="4.0000" cy="86.0000" r="1.6000" />
</g>
<g style="fill:#FFFFFF; fill-opacity:1.0000; stroke:none;">
<circle cx="94.0000" cy="27.0000" r="0.6500" />
</g>
<g style="fill:#FFFFFF; fill-opacity:1.0000; stroke:none;">
<circle cx="94.0000" cy="32.0800" r="0.6500" />
</g>
<g style="fill:#FFFFFF; fill-opacity:1.0000; stroke:none;">
<circle cx="49.0000" cy="36.0000" r="0.4500" />
</g>
<g style="fill:#FFFFFF; fill-opacity:1.0000; stroke:none;">
<circle cx="54.0000" cy="36.0000" r="0.4500" />
</g>
<g style="fill:#FFFFFF; fill-opacity:1.0000; stroke:none;">
<circle cx="68.0000" cy="12.0000" r="0.4000" />
</g>
<g style="fill:#FFFFFF; fill-opacity:1.0000; stroke:none;">
<circle cx="60.5000" cy="12.0000" r="0.4000" />
</g>
<g style="fill:#000000; fill-opacity:1.0000; stroke:none;">
<circle cx="4.0000" cy="4.0000" r="1.6000" />
</g>
<g style="fill:#FFFFFF; fill-opacity:1.0000; stroke:none;">
<circle cx="84.0000" cy="27.0000" r="0.4000" />
</g>
<g style="fill:#FFFFFF; fill-opacity:1.0000; stroke:none;">
<circle cx="84.0000" cy="34.5000" r="0.4000" />
</g>
<g style="fill:#FFFFFF; fill-opacity:1.0000; stroke:none;">
<circle cx="12.0000" cy="25.0000" r="0.5000" />
</g>
<g style="fill:#FFFFFF; fill-opacity:1.0000; stroke:none;">
<circle cx="32.0000" cy="25.0000" r="0.5000" />
</g>
<g style="fill:#000000; fill-opacity:1.0000; stroke:none;">
<circle cx="96.0000" cy="4.0000" r="1.6000" />
</g>
<g style="fill:#FFFFFF; fill-opacity:1.0000; stroke:none;">
<circle cx="62.0000" cy="24.0000" r="0.4000" />
</g>
<g style="fill:#FFFFFF; fill-opacity:1.0000; stroke:none;">
<circle cx="54.5000" cy="24.0000" r="0.4000" />
</g>
<g style="fill:#FFFFFF; fill-opacity:1.0000; stroke:none;">
<circle cx="68.0000" cy="35.0000" r="0.4500" />
</g>
<g style="fill:#FFFFFF; fill-opacity:1.0000; stroke:none;">
<circle cx="63.0000" cy="35.0000" r="0.4500" />
</g>
<g style="fill:#FFFFFF; fill-opacity:1.0000; stroke:none;">
<circle cx="8.0000" cy="18.0000" r="0.4000" />
</g>
<g style="fill:#FFFFFF; fill-opacity:1.0000; stroke:none;">
<circle cx="13.0000" cy="18.0000" r="0.4000" />
</g>
<g style="fill:#FFFFFF; fill-opacity:1.0000; stroke:none;">
<circle cx="88.0000" cy="58.0000" r="0.5000" />
</g>
<g style="fill:#FFFFFF; fill-opacity:1.0000; stroke:none;">
<circle cx="88.0000" cy="60.5400" r="0.5000" />
</g>
<g style="fill:#FFFFFF; fill-opacity:1.0000; stroke:none;">
<circle cx="39.0000" cy="14.0000" r="0.4500" />
</g>
<g style="fill:#FFFFFF; fill-opacity:1.0000; stroke:none;">
<circle cx="40.7000" cy="8.9200" r="0.4500" />
</g>
<g style="fill:#FFFFFF; fill-opacity:1.0000; stroke:none;">
<circle cx="42.4000" cy="14.0000" r="0.4500" />
</g>
<g style="fill:#FFFFFF; fill-opacity:1.0000; stroke:none;">
<circle cx="44.1000" cy="8.9200" r="0.4500" />
</g>
<g style="fill:#FFFFFF; fill-opacity:1.0000; stroke:none;">
<circle cx="45.8000" cy="14.0000" r="0.4500" />
</g>
<g style="fill:#FFFFFF; fill-opacity:1.0000; stroke:none;">
<circle cx="47.5000" cy="8.9200" r="0.4500" />
</g>
<g style="fill:#FFFFFF; fill-opacity:1.0000; stroke:none;">
<circle cx="49.2000" cy="14.0000" r="0.4500" />
</g>
<g style="fill:#FFFFFF; fill-opacity:1.0000; stroke:none;">
<circle cx="50.9000" cy="8.9200" r="0.4500" />
</g>
<g style="fill:#FFFFFF; fill-opacity:1.0000; stroke:none;">
<circle cx="52.6000" cy="14.0000" r="0.4500" />
</g>
<g style="fill:#FFFFFF; fill-opacity:1.0000; stroke:none;">
<circle cx="54.3000" cy="8.9200" r="0.4500" />
</g>
<g style="fill:#FFFFFF; fill-opacity:1.0000; stroke:none;">
<circle cx="56.0000" cy="14.0000" r="0.4500" />
</g>
<g style="fill:#FFFFFF; fill-opacity:1.0000; stroke:none;">
<circle cx="23.0000" cy="45.0000" r="0.5000" />
</g>
<g style="fill:#FFFFFF; fill-opacity:1.0000; stroke:none;">
<circle cx="23.0000" cy="65.0000" r="0.5000" />
</g>
<g style="fill:#000000; fill-opacity:1.0000; stroke:none;">
<circle cx="96.0000" cy="86.0000" r="1.6000" />
</g>
<g style="fill:#FFFFFF; fill-opacity:1.0000; stroke:none;">
<circle cx="68.0000" cy="25.0000" r="0.4000" />
</g>
<g style="fill:#FFFFFF; fill-opacity:1.0000; stroke:none;">
<circle cx="68.0000" cy="17.5000" r="0.4000" />
</g>
<g style="fill:#FFFFFF; fill-opacity:1.0000; stroke:none;">
<circle cx="32.0000" cy="19.0000" r="0.4000" />
</g>
<g style="fill:#FFFFFF; fill-opacity:1.0000; stroke:none;">
<circle cx="37.0000" cy="19.0000" r="0.4000" />
</g>
<g style="fill:#FFFFFF; fill-opacity:1.0000; stroke:none;">
<circle cx="74.0000" cy="63.0000" r="0.4500" />
</g>
<g style="fill:#FFFFFF; fill-opacity:1.0000; stroke:none;">
<circle cx="77.5000" cy="63.0000" r="0.4500" />
</g>
<g style="fill:#FFFFFF; fill-opacity:1.0000; stroke:none;">
<circle cx="40.0000" cy="77.0000" r="0.6500" />
</g>
<g style="fill:#FFFFFF; fill-opacity:1.0000; stroke:none;">
<circle cx="45.0800" cy="77.0000" r="0.6500" />
</g>
<g style="fill:#FFFFFF; fill-opacity:1.0000; stroke:none;">
<circle cx="50.1600" cy="77.0000" r="0.6500" />
</g>
<g style="fill:#FFFFFF; fill-opacity:1.0000; stroke:none;">
<circle cx="34.0000" cy="13.0000" r="0.4000" />
</g>
<g style="fill:#FFFFFF; fill-opacity:1.0000; stroke:none;">
<circle cx="34.0000" cy="8.0000" r="0.4000" />
</g>
</svg>
