#VRML V2.0 utf8
# PROVISIONAL; NOT MANUFACTURER CAD; all coordinates in 0.1 inch units
Shape { appearance Appearance { material Material { diffuseColor 0.20784313725490197 0.2784313725490196 0.3215686274509804 } } geometry IndexedFaceSet { solid FALSE coord Coordinate { point [2.95275591 0.00000000 0.39370079, 2.91493165 0.38403607 0.39370079, 2.80291247 0.75331384 0.39370079, 2.62100317 1.09364219 0.39370079, 2.37619445 1.39194248 0.39370079, 2.07789416 1.63675121 0.39370079, 1.73756581 1.81866050 0.39370079, 1.36828804 1.93067969 0.39370079, 0.98425197 1.96850394 0.39370079, 0.60021590 1.93067969 0.39370079, 0.23093813 1.81866050 0.39370079, -0.10939022 1.63675121 0.39370079, -0.40769051 1.39194248 0.39370079, -0.65249924 1.09364219 0.39370079, -0.83440853 0.75331384 0.39370079, -0.94642772 0.38403607 0.39370079, -0.98425197 0.00000000 0.39370079, -0.94642772 -0.38403607 0.39370079, -0.83440853 -0.75331384 0.39370079, -0.65249924 -1.09364219 0.39370079, -0.40769051 -1.39194248 0.39370079, -0.10939022 -1.63675121 0.39370079, 0.23093813 -1.81866050 0.39370079, 0.60021590 -1.93067969 0.39370079, 0.98425197 -1.96850394 0.39370079, 1.36828804 -1.93067969 0.39370079, 1.73756581 -1.81866050 0.39370079, 2.07789416 -1.63675121 0.39370079, 2.37619445 -1.39194248 0.39370079, 2.62100317 -1.09364219 0.39370079, 2.80291247 -0.75331384 0.39370079, 2.91493165 -0.38403607 0.39370079, 2.95275591 0.00000000 6.29921260, 2.91493165 0.38403607 6.29921260, 2.80291247 0.75331384 6.29921260, 2.62100317 1.09364219 6.29921260, 2.37619445 1.39194248 6.29921260, 2.07789416 1.63675121 6.29921260, 1.73756581 1.81866050 6.29921260, 1.36828804 1.93067969 6.29921260, 0.98425197 1.96850394 6.29921260, 0.60021590 1.93067969 6.29921260, 0.23093813 1.81866050 6.29921260, -0.10939022 1.63675121 6.29921260, -0.40769051 1.39194248 6.29921260, -0.65249924 1.09364219 6.29921260, -0.83440853 0.75331384 6.29921260, -0.94642772 0.38403607 6.29921260, -0.98425197 0.00000000 6.29921260, -0.94642772 -0.38403607 6.29921260, -0.83440853 -0.75331384 6.29921260, -0.65249924 -1.09364219 6.29921260, -0.40769051 -1.39194248 6.29921260, -0.10939022 -1.63675121 6.29921260, 0.23093813 -1.81866050 6.29921260, 0.60021590 -1.93067969 6.29921260, 0.98425197 -1.96850394 6.29921260, 1.36828804 -1.93067969 6.29921260, 1.73756581 -1.81866050 6.29921260, 2.07789416 -1.63675121 6.29921260, 2.37619445 -1.39194248 6.29921260, 2.62100317 -1.09364219 6.29921260, 2.80291247 -0.75331384 6.29921260, 2.91493165 -0.38403607 6.29921260] } coordIndex [31 30 29 28 27 26 25 24 23 22 21 20 19 18 17 16 15 14 13 12 11 10 9 8 7 6 5 4 3 2 1 0 -1, 32 33 34 35 36 37 38 39 40 41 42 43 44 45 46 47 48 49 50 51 52 53 54 55 56 57 58 59 60 61 62 63 -1, 0 1 33 32 -1, 1 2 34 33 -1, 2 3 35 34 -1, 3 4 36 35 -1, 4 5 37 36 -1, 5 6 38 37 -1, 6 7 39 38 -1, 7 8 40 39 -1, 8 9 41 40 -1, 9 10 42 41 -1, 10 11 43 42 -1, 11 12 44 43 -1, 12 13 45 44 -1, 13 14 46 45 -1, 14 15 47 46 -1, 15 16 48 47 -1, 16 17 49 48 -1, 17 18 50 49 -1, 18 19 51 50 -1, 19 20 52 51 -1, 20 21 53 52 -1, 21 22 54 53 -1, 22 23 55 54 -1, 23 24 56 55 -1, 24 25 57 56 -1, 25 26 58 57 -1, 26 27 59 58 -1, 27 28 60 59 -1, 28 29 61 60 -1, 29 30 62 61 -1, 30 31 63 62 -1, 31 0 32 63 -1] } }
Shape { appearance Appearance { material Material { diffuseColor 0.7686274509803922 0.8 0.8156862745098039 } } geometry IndexedFaceSet { solid FALSE coord Coordinate { point [0.08661417 0.00000000 -1.18110236, 0.06124547 0.06124547 -1.18110236, 0.00000000 0.08661417 -1.18110236, -0.06124547 0.06124547 -1.18110236, -0.08661417 0.00000000 -1.18110236, -0.06124547 -0.06124547 -1.18110236, -0.00000000 -0.08661417 -1.18110236, 0.06124547 -0.06124547 -1.18110236, 0.08661417 0.00000000 0.78740157, 0.06124547 0.06124547 0.78740157, 0.00000000 0.08661417 0.78740157, -0.06124547 0.06124547 0.78740157, -0.08661417 0.00000000 0.78740157, -0.06124547 -0.06124547 0.78740157, -0.00000000 -0.08661417 0.78740157, 0.06124547 -0.06124547 0.78740157] } coordIndex [7 6 5 4 3 2 1 0 -1, 8 9 10 11 12 13 14 15 -1, 0 1 9 8 -1, 1 2 10 9 -1, 2 3 11 10 -1, 3 4 12 11 -1, 4 5 13 12 -1, 5 6 14 13 -1, 6 7 15 14 -1, 7 0 8 15 -1] } }
Shape { appearance Appearance { material Material { diffuseColor 0.7686274509803922 0.8 0.8156862745098039 } } geometry IndexedFaceSet { solid FALSE coord Coordinate { point [2.05511811 0.00000000 -1.18110236, 2.02974941 0.06124547 -1.18110236, 1.96850394 0.08661417 -1.18110236, 1.90725847 0.06124547 -1.18110236, 1.88188976 0.00000000 -1.18110236, 1.90725847 -0.06124547 -1.18110236, 1.96850394 -0.08661417 -1.18110236, 2.02974941 -0.06124547 -1.18110236, 2.05511811 0.00000000 0.78740157, 2.02974941 0.06124547 0.78740157, 1.96850394 0.08661417 0.78740157, 1.90725847 0.06124547 0.78740157, 1.88188976 0.00000000 0.78740157, 1.90725847 -0.06124547 0.78740157, 1.96850394 -0.08661417 0.78740157, 2.02974941 -0.06124547 0.78740157] } coordIndex [7 6 5 4 3 2 1 0 -1, 8 9 10 11 12 13 14 15 -1, 0 1 9 8 -1, 1 2 10 9 -1, 2 3 11 10 -1, 3 4 12 11 -1, 4 5 13 12 -1, 5 6 14 13 -1, 6 7 15 14 -1, 7 0 8 15 -1] } }
