#VRML V2.0 utf8
# PROVISIONAL; NOT MANUFACTURER CAD; all coordinates in 0.1 inch units
Shape { appearance Appearance { material Material { diffuseColor 0.20784313725490197 0.2784313725490196 0.3215686274509804 } } geometry IndexedFaceSet { solid FALSE coord Coordinate { point [2.26377953 0.00000000 0.39370079, 2.23352013 0.30722885 0.39370079, 2.14390478 0.60265107 0.39370079, 1.99837734 0.87491375 0.39370079, 1.80253036 1.11355399 0.39370079, 1.56389013 1.30940096 0.39370079, 1.29162745 1.45492840 0.39370079, 0.99620523 1.54454375 0.39370079, 0.68897638 1.57480315 0.39370079, 0.38174752 1.54454375 0.39370079, 0.08632530 1.45492840 0.39370079, -0.18593737 1.30940096 0.39370079, -0.42457761 1.11355399 0.39370079, -0.62042459 0.87491375 0.39370079, -0.76595202 0.60265107 0.39370079, -0.85556737 0.30722885 0.39370079, -0.88582677 0.00000000 0.39370079, -0.85556737 -0.30722885 0.39370079, -0.76595202 -0.60265107 0.39370079, -0.62042459 -0.87491375 0.39370079, -0.42457761 -1.11355399 0.39370079, -0.18593737 -1.30940096 0.39370079, 0.08632530 -1.45492840 0.39370079, 0.38174752 -1.54454375 0.39370079, 0.68897638 -1.57480315 0.39370079, 0.99620523 -1.54454375 0.39370079, 1.29162745 -1.45492840 0.39370079, 1.56389013 -1.30940096 0.39370079, 1.80253036 -1.11355399 0.39370079, 1.99837734 -0.87491375 0.39370079, 2.14390478 -0.60265107 0.39370079, 2.23352013 -0.30722885 0.39370079, 2.26377953 0.00000000 4.72440945, 2.23352013 0.30722885 4.72440945, 2.14390478 0.60265107 4.72440945, 1.99837734 0.87491375 4.72440945, 1.80253036 1.11355399 4.72440945, 1.56389013 1.30940096 4.72440945, 1.29162745 1.45492840 4.72440945, 0.99620523 1.54454375 4.72440945, 0.68897638 1.57480315 4.72440945, 0.38174752 1.54454375 4.72440945, 0.08632530 1.45492840 4.72440945, -0.18593737 1.30940096 4.72440945, -0.42457761 1.11355399 4.72440945, -0.62042459 0.87491375 4.72440945, -0.76595202 0.60265107 4.72440945, -0.85556737 0.30722885 4.72440945, -0.88582677 0.00000000 4.72440945, -0.85556737 -0.30722885 4.72440945, -0.76595202 -0.60265107 4.72440945, -0.62042459 -0.87491375 4.72440945, -0.42457761 -1.11355399 4.72440945, -0.18593737 -1.30940096 4.72440945, 0.08632530 -1.45492840 4.72440945, 0.38174752 -1.54454375 4.72440945, 0.68897638 -1.57480315 4.72440945, 0.99620523 -1.54454375 4.72440945, 1.29162745 -1.45492840 4.72440945, 1.56389013 -1.30940096 4.72440945, 1.80253036 -1.11355399 4.72440945, 1.99837734 -0.87491375 4.72440945, 2.14390478 -0.60265107 4.72440945, 2.23352013 -0.30722885 4.72440945] } coordIndex [31 30 29 28 27 26 25 24 23 22 21 20 19 18 17 16 15 14 13 12 11 10 9 8 7 6 5 4 3 2 1 0 -1, 32 33 34 35 36 37 38 39 40 41 42 43 44 45 46 47 48 49 50 51 52 53 54 55 56 57 58 59 60 61 62 63 -1, 0 1 33 32 -1, 1 2 34 33 -1, 2 3 35 34 -1, 3 4 36 35 -1, 4 5 37 36 -1, 5 6 38 37 -1, 6 7 39 38 -1, 7 8 40 39 -1, 8 9 41 40 -1, 9 10 42 41 -1, 10 11 43 42 -1, 11 12 44 43 -1, 12 13 45 44 -1, 13 14 46 45 -1, 14 15 47 46 -1, 15 16 48 47 -1, 16 17 49 48 -1, 17 18 50 49 -1, 18 19 51 50 -1, 19 20 52 51 -1, 20 21 53 52 -1, 21 22 54 53 -1, 22 23 55 54 -1, 23 24 56 55 -1, 24 25 57 56 -1, 25 26 58 57 -1, 26 27 59 58 -1, 27 28 60 59 -1, 28 29 61 60 -1, 29 30 62 61 -1, 30 31 63 62 -1, 31 0 32 63 -1] } }
Shape { appearance Appearance { material Material { diffuseColor 0.7686274509803922 0.8 0.8156862745098039 } } geometry IndexedFaceSet { solid FALSE coord Coordinate { point [0.08661417 0.00000000 -1.18110236, 0.06124547 0.06124547 -1.18110236, 0.00000000 0.08661417 -1.18110236, -0.06124547 0.06124547 -1.18110236, -0.08661417 0.00000000 -1.18110236, -0.06124547 -0.06124547 -1.18110236, -0.00000000 -0.08661417 -1.18110236, 0.06124547 -0.06124547 -1.18110236, 0.08661417 0.00000000 0.78740157, 0.06124547 0.06124547 0.78740157, 0.00000000 0.08661417 0.78740157, -0.06124547 0.06124547 0.78740157, -0.08661417 0.00000000 0.78740157, -0.06124547 -0.06124547 0.78740157, -0.00000000 -0.08661417 0.78740157, 0.06124547 -0.06124547 0.78740157] } coordIndex [7 6 5 4 3 2 1 0 -1, 8 9 10 11 12 13 14 15 -1, 0 1 9 8 -1, 1 2 10 9 -1, 2 3 11 10 -1, 3 4 12 11 -1, 4 5 13 12 -1, 5 6 14 13 -1, 6 7 15 14 -1, 7 0 8 15 -1] } }
Shape { appearance Appearance { material Material { diffuseColor 0.7686274509803922 0.8 0.8156862745098039 } } geometry IndexedFaceSet { solid FALSE coord Coordinate { point [1.46456693 0.00000000 -1.18110236, 1.43919823 0.06124547 -1.18110236, 1.37795276 0.08661417 -1.18110236, 1.31670729 0.06124547 -1.18110236, 1.29133858 0.00000000 -1.18110236, 1.31670729 -0.06124547 -1.18110236, 1.37795276 -0.08661417 -1.18110236, 1.43919823 -0.06124547 -1.18110236, 1.46456693 0.00000000 0.78740157, 1.43919823 0.06124547 0.78740157, 1.37795276 0.08661417 0.78740157, 1.31670729 0.06124547 0.78740157, 1.29133858 0.00000000 0.78740157, 1.31670729 -0.06124547 0.78740157, 1.37795276 -0.08661417 0.78740157, 1.43919823 -0.06124547 0.78740157] } coordIndex [7 6 5 4 3 2 1 0 -1, 8 9 10 11 12 13 14 15 -1, 0 1 9 8 -1, 1 2 10 9 -1, 2 3 11 10 -1, 3 4 12 11 -1, 4 5 13 12 -1, 5 6 14 13 -1, 6 7 15 14 -1, 7 0 8 15 -1] } }
