#VRML V2.0 utf8
# PROVISIONAL; NOT MANUFACTURER CAD; all coordinates in 0.1 inch units
Shape { appearance Appearance { material Material { diffuseColor 0.20784313725490197 0.2784313725490196 0.3215686274509804 } } geometry IndexedFaceSet { solid FALSE coord Coordinate { point [8.85826772 0.00000000 0.39370079, 8.72588284 1.34412623 0.39370079, 8.33381568 2.63659845 0.39370079, 7.69713316 3.82774767 0.39370079, 6.84030263 4.87179869 0.39370079, 5.79625161 5.72862922 0.39370079, 4.60510239 6.36531174 0.39370079, 3.31263017 6.75737890 0.39370079, 1.96850394 6.88976378 0.39370079, 0.62437770 6.75737890 0.39370079, -0.66809451 6.36531174 0.39370079, -1.85924373 5.72862922 0.39370079, -2.90329475 4.87179869 0.39370079, -3.76012528 3.82774767 0.39370079, -4.39680780 2.63659845 0.39370079, -4.78887496 1.34412623 0.39370079, -4.92125984 0.00000000 0.39370079, -4.78887496 -1.34412623 0.39370079, -4.39680780 -2.63659845 0.39370079, -3.76012528 -3.82774767 0.39370079, -2.90329475 -4.87179869 0.39370079, -1.85924373 -5.72862922 0.39370079, -0.66809451 -6.36531174 0.39370079, 0.62437770 -6.75737890 0.39370079, 1.96850394 -6.88976378 0.39370079, 3.31263017 -6.75737890 0.39370079, 4.60510239 -6.36531174 0.39370079, 5.79625161 -5.72862922 0.39370079, 6.84030263 -4.87179869 0.39370079, 7.69713316 -3.82774767 0.39370079, 8.33381568 -2.63659845 0.39370079, 8.72588284 -1.34412623 0.39370079, 8.85826772 0.00000000 19.68503937, 8.72588284 1.34412623 19.68503937, 8.33381568 2.63659845 19.68503937, 7.69713316 3.82774767 19.68503937, 6.84030263 4.87179869 19.68503937, 5.79625161 5.72862922 19.68503937, 4.60510239 6.36531174 19.68503937, 3.31263017 6.75737890 19.68503937, 1.96850394 6.88976378 19.68503937, 0.62437770 6.75737890 19.68503937, -0.66809451 6.36531174 19.68503937, -1.85924373 5.72862922 19.68503937, -2.90329475 4.87179869 19.68503937, -3.76012528 3.82774767 19.68503937, -4.39680780 2.63659845 19.68503937, -4.78887496 1.34412623 19.68503937, -4.92125984 0.00000000 19.68503937, -4.78887496 -1.34412623 19.68503937, -4.39680780 -2.63659845 19.68503937, -3.76012528 -3.82774767 19.68503937, -2.90329475 -4.87179869 19.68503937, -1.85924373 -5.72862922 19.68503937, -0.66809451 -6.36531174 19.68503937, 0.62437770 -6.75737890 19.68503937, 1.96850394 -6.88976378 19.68503937, 3.31263017 -6.75737890 19.68503937, 4.60510239 -6.36531174 19.68503937, 5.79625161 -5.72862922 19.68503937, 6.84030263 -4.87179869 19.68503937, 7.69713316 -3.82774767 19.68503937, 8.33381568 -2.63659845 19.68503937, 8.72588284 -1.34412623 19.68503937] } coordIndex [31 30 29 28 27 26 25 24 23 22 21 20 19 18 17 16 15 14 13 12 11 10 9 8 7 6 5 4 3 2 1 0 -1, 32 33 34 35 36 37 38 39 40 41 42 43 44 45 46 47 48 49 50 51 52 53 54 55 56 57 58 59 60 61 62 63 -1, 0 1 33 32 -1, 1 2 34 33 -1, 2 3 35 34 -1, 3 4 36 35 -1, 4 5 37 36 -1, 5 6 38 37 -1, 6 7 39 38 -1, 7 8 40 39 -1, 8 9 41 40 -1, 9 10 42 41 -1, 10 11 43 42 -1, 11 12 44 43 -1, 12 13 45 44 -1, 13 14 46 45 -1, 14 15 47 46 -1, 15 16 48 47 -1, 16 17 49 48 -1, 17 18 50 49 -1, 18 19 51 50 -1, 19 20 52 51 -1, 20 21 53 52 -1, 21 22 54 53 -1, 22 23 55 54 -1, 23 24 56 55 -1, 24 25 57 56 -1, 25 26 58 57 -1, 26 27 59 58 -1, 27 28 60 59 -1, 28 29 61 60 -1, 29 30 62 61 -1, 30 31 63 62 -1, 31 0 32 63 -1] } }
Shape { appearance Appearance { material Material { diffuseColor 0.7686274509803922 0.8 0.8156862745098039 } } geometry IndexedFaceSet { solid FALSE coord Coordinate { point [0.08661417 0.00000000 -1.18110236, 0.06124547 0.06124547 -1.18110236, 0.00000000 0.08661417 -1.18110236, -0.06124547 0.06124547 -1.18110236, -0.08661417 0.00000000 -1.18110236, -0.06124547 -0.06124547 -1.18110236, -0.00000000 -0.08661417 -1.18110236, 0.06124547 -0.06124547 -1.18110236, 0.08661417 0.00000000 0.78740157, 0.06124547 0.06124547 0.78740157, 0.00000000 0.08661417 0.78740157, -0.06124547 0.06124547 0.78740157, -0.08661417 0.00000000 0.78740157, -0.06124547 -0.06124547 0.78740157, -0.00000000 -0.08661417 0.78740157, 0.06124547 -0.06124547 0.78740157] } coordIndex [7 6 5 4 3 2 1 0 -1, 8 9 10 11 12 13 14 15 -1, 0 1 9 8 -1, 1 2 10 9 -1, 2 3 11 10 -1, 3 4 12 11 -1, 4 5 13 12 -1, 5 6 14 13 -1, 6 7 15 14 -1, 7 0 8 15 -1] } }
Shape { appearance Appearance { material Material { diffuseColor 0.7686274509803922 0.8 0.8156862745098039 } } geometry IndexedFaceSet { solid FALSE coord Coordinate { point [4.02362205 0.00000000 -1.18110236, 3.99825334 0.06124547 -1.18110236, 3.93700787 0.08661417 -1.18110236, 3.87576240 0.06124547 -1.18110236, 3.85039370 0.00000000 -1.18110236, 3.87576240 -0.06124547 -1.18110236, 3.93700787 -0.08661417 -1.18110236, 3.99825334 -0.06124547 -1.18110236, 4.02362205 0.00000000 0.78740157, 3.99825334 0.06124547 0.78740157, 3.93700787 0.08661417 0.78740157, 3.87576240 0.06124547 0.78740157, 3.85039370 0.00000000 0.78740157, 3.87576240 -0.06124547 0.78740157, 3.93700787 -0.08661417 0.78740157, 3.99825334 -0.06124547 0.78740157] } coordIndex [7 6 5 4 3 2 1 0 -1, 8 9 10 11 12 13 14 15 -1, 0 1 9 8 -1, 1 2 10 9 -1, 2 3 11 10 -1, 3 4 12 11 -1, 4 5 13 12 -1, 5 6 14 13 -1, 6 7 15 14 -1, 7 0 8 15 -1] } }
