#VRML V2.0 utf8
# PROVISIONAL; NOT MANUFACTURER CAD; all coordinates in 0.1 inch units
Shape { appearance Appearance { material Material { diffuseColor 0.7333333333333333 0.396078431372549 0.32941176470588235 } } geometry IndexedFaceSet { solid FALSE coord Coordinate { point [-0.59055118 -0.78740157 0.39370079, 2.55905512 -0.78740157 0.39370079, 2.55905512 0.78740157 0.39370079, -0.59055118 0.78740157 0.39370079, -0.59055118 -0.78740157 2.36220472, 2.55905512 -0.78740157 2.36220472, 2.55905512 0.78740157 2.36220472, -0.59055118 0.78740157 2.36220472] } coordIndex [0 3 2 1 -1, 4 5 6 7 -1, 0 1 5 4 -1, 1 2 6 5 -1, 2 3 7 6 -1, 3 0 4 7 -1] } }
Shape { appearance Appearance { material Material { diffuseColor 0.7686274509803922 0.8 0.8156862745098039 } } geometry IndexedFaceSet { solid FALSE coord Coordinate { point [0.08661417 0.00000000 -1.18110236, 0.06124547 0.06124547 -1.18110236, 0.00000000 0.08661417 -1.18110236, -0.06124547 0.06124547 -1.18110236, -0.08661417 0.00000000 -1.18110236, -0.06124547 -0.06124547 -1.18110236, -0.00000000 -0.08661417 -1.18110236, 0.06124547 -0.06124547 -1.18110236, 0.08661417 0.00000000 0.78740157, 0.06124547 0.06124547 0.78740157, 0.00000000 0.08661417 0.78740157, -0.06124547 0.06124547 0.78740157, -0.08661417 0.00000000 0.78740157, -0.06124547 -0.06124547 0.78740157, -0.00000000 -0.08661417 0.78740157, 0.06124547 -0.06124547 0.78740157] } coordIndex [7 6 5 4 3 2 1 0 -1, 8 9 10 11 12 13 14 15 -1, 0 1 9 8 -1, 1 2 10 9 -1, 2 3 11 10 -1, 3 4 12 11 -1, 4 5 13 12 -1, 5 6 14 13 -1, 6 7 15 14 -1, 7 0 8 15 -1] } }
Shape { appearance Appearance { material Material { diffuseColor 0.7686274509803922 0.8 0.8156862745098039 } } geometry IndexedFaceSet { solid FALSE coord Coordinate { point [2.05511811 0.00000000 -1.18110236, 2.02974941 0.06124547 -1.18110236, 1.96850394 0.08661417 -1.18110236, 1.90725847 0.06124547 -1.18110236, 1.88188976 0.00000000 -1.18110236, 1.90725847 -0.06124547 -1.18110236, 1.96850394 -0.08661417 -1.18110236, 2.02974941 -0.06124547 -1.18110236, 2.05511811 0.00000000 0.78740157, 2.02974941 0.06124547 0.78740157, 1.96850394 0.08661417 0.78740157, 1.90725847 0.06124547 0.78740157, 1.88188976 0.00000000 0.78740157, 1.90725847 -0.06124547 0.78740157, 1.96850394 -0.08661417 0.78740157, 2.02974941 -0.06124547 0.78740157] } coordIndex [7 6 5 4 3 2 1 0 -1, 8 9 10 11 12 13 14 15 -1, 0 1 9 8 -1, 1 2 10 9 -1, 2 3 11 10 -1, 3 4 12 11 -1, 4 5 13 12 -1, 5 6 14 13 -1, 6 7 15 14 -1, 7 0 8 15 -1] } }
