#VRML V2.0 utf8
# PROVISIONAL; NOT MANUFACTURER CAD; all coordinates in 0.1 inch units
Shape { appearance Appearance { material Material { diffuseColor 0.20784313725490197 0.2784313725490196 0.3215686274509804 } } geometry IndexedFaceSet { solid FALSE coord Coordinate { point [-0.78740157 -1.37795276 0.39370079, 10.62992126 -1.37795276 0.39370079, 10.62992126 1.37795276 0.39370079, -0.78740157 1.37795276 0.39370079, -0.78740157 -1.37795276 3.93700787, 10.62992126 -1.37795276 3.93700787, 10.62992126 1.37795276 3.93700787, -0.78740157 1.37795276 3.93700787] } coordIndex [0 3 2 1 -1, 4 5 6 7 -1, 0 1 5 4 -1, 1 2 6 5 -1, 2 3 7 6 -1, 3 0 4 7 -1] } }
Shape { appearance Appearance { material Material { diffuseColor 0.7686274509803922 0.8 0.8156862745098039 } } geometry IndexedFaceSet { solid FALSE coord Coordinate { point [0.08661417 0.00000000 -1.18110236, 0.06124547 0.06124547 -1.18110236, 0.00000000 0.08661417 -1.18110236, -0.06124547 0.06124547 -1.18110236, -0.08661417 0.00000000 -1.18110236, -0.06124547 -0.06124547 -1.18110236, -0.00000000 -0.08661417 -1.18110236, 0.06124547 -0.06124547 -1.18110236, 0.08661417 0.00000000 0.78740157, 0.06124547 0.06124547 0.78740157, 0.00000000 0.08661417 0.78740157, -0.06124547 0.06124547 0.78740157, -0.08661417 0.00000000 0.78740157, -0.06124547 -0.06124547 0.78740157, -0.00000000 -0.08661417 0.78740157, 0.06124547 -0.06124547 0.78740157] } coordIndex [7 6 5 4 3 2 1 0 -1, 8 9 10 11 12 13 14 15 -1, 0 1 9 8 -1, 1 2 10 9 -1, 2 3 11 10 -1, 3 4 12 11 -1, 4 5 13 12 -1, 5 6 14 13 -1, 6 7 15 14 -1, 7 0 8 15 -1] } }
Shape { appearance Appearance { material Material { diffuseColor 0.7686274509803922 0.8 0.8156862745098039 } } geometry IndexedFaceSet { solid FALSE coord Coordinate { point [9.92913386 0.00000000 -1.18110236, 9.90376515 0.06124547 -1.18110236, 9.84251969 0.08661417 -1.18110236, 9.78127422 0.06124547 -1.18110236, 9.75590551 0.00000000 -1.18110236, 9.78127422 -0.06124547 -1.18110236, 9.84251969 -0.08661417 -1.18110236, 9.90376515 -0.06124547 -1.18110236, 9.92913386 0.00000000 0.78740157, 9.90376515 0.06124547 0.78740157, 9.84251969 0.08661417 0.78740157, 9.78127422 0.06124547 0.78740157, 9.75590551 0.00000000 0.78740157, 9.78127422 -0.06124547 0.78740157, 9.84251969 -0.08661417 0.78740157, 9.90376515 -0.06124547 0.78740157] } coordIndex [7 6 5 4 3 2 1 0 -1, 8 9 10 11 12 13 14 15 -1, 0 1 9 8 -1, 1 2 10 9 -1, 2 3 11 10 -1, 3 4 12 11 -1, 4 5 13 12 -1, 5 6 14 13 -1, 6 7 15 14 -1, 7 0 8 15 -1] } }
