#VRML V2.0 utf8
# PROVISIONAL; NOT MANUFACTURER CAD; all coordinates in 0.1 inch units
Shape { appearance Appearance { material Material { diffuseColor 0.2235294117647059 0.5294117647058824 0.592156862745098 } } geometry IndexedFaceSet { solid FALSE coord Coordinate { point [-0.51181102 -0.51181102 0.39370079, 1.51181102 -0.51181102 0.39370079, 1.51181102 0.51181102 0.39370079, -0.51181102 0.51181102 0.39370079, -0.51181102 -0.51181102 2.36220472, 1.51181102 -0.51181102 2.36220472, 1.51181102 0.51181102 2.36220472, -0.51181102 0.51181102 2.36220472] } coordIndex [0 3 2 1 -1, 4 5 6 7 -1, 0 1 5 4 -1, 1 2 6 5 -1, 2 3 7 6 -1, 3 0 4 7 -1] } }
Shape { appearance Appearance { material Material { diffuseColor 0.7686274509803922 0.8 0.8156862745098039 } } geometry IndexedFaceSet { solid FALSE coord Coordinate { point [0.08661417 0.00000000 -1.18110236, 0.06124547 0.06124547 -1.18110236, 0.00000000 0.08661417 -1.18110236, -0.06124547 0.06124547 -1.18110236, -0.08661417 0.00000000 -1.18110236, -0.06124547 -0.06124547 -1.18110236, -0.00000000 -0.08661417 -1.18110236, 0.06124547 -0.06124547 -1.18110236, 0.08661417 0.00000000 0.78740157, 0.06124547 0.06124547 0.78740157, 0.00000000 0.08661417 0.78740157, -0.06124547 0.06124547 0.78740157, -0.08661417 0.00000000 0.78740157, -0.06124547 -0.06124547 0.78740157, -0.00000000 -0.08661417 0.78740157, 0.06124547 -0.06124547 0.78740157] } coordIndex [7 6 5 4 3 2 1 0 -1, 8 9 10 11 12 13 14 15 -1, 0 1 9 8 -1, 1 2 10 9 -1, 2 3 11 10 -1, 3 4 12 11 -1, 4 5 13 12 -1, 5 6 14 13 -1, 6 7 15 14 -1, 7 0 8 15 -1] } }
Shape { appearance Appearance { material Material { diffuseColor 0.7686274509803922 0.8 0.8156862745098039 } } geometry IndexedFaceSet { solid FALSE coord Coordinate { point [1.08661417 0.00000000 -1.18110236, 1.06124547 0.06124547 -1.18110236, 1.00000000 0.08661417 -1.18110236, 0.93875453 0.06124547 -1.18110236, 0.91338583 0.00000000 -1.18110236, 0.93875453 -0.06124547 -1.18110236, 1.00000000 -0.08661417 -1.18110236, 1.06124547 -0.06124547 -1.18110236, 1.08661417 0.00000000 0.78740157, 1.06124547 0.06124547 0.78740157, 1.00000000 0.08661417 0.78740157, 0.93875453 0.06124547 0.78740157, 0.91338583 0.00000000 0.78740157, 0.93875453 -0.06124547 0.78740157, 1.00000000 -0.08661417 0.78740157, 1.06124547 -0.06124547 0.78740157] } coordIndex [7 6 5 4 3 2 1 0 -1, 8 9 10 11 12 13 14 15 -1, 0 1 9 8 -1, 1 2 10 9 -1, 2 3 11 10 -1, 3 4 12 11 -1, 4 5 13 12 -1, 5 6 14 13 -1, 6 7 15 14 -1, 7 0 8 15 -1] } }
