#VRML V2.0 utf8
# PROVISIONAL; NOT MANUFACTURER CAD; all coordinates in 0.1 inch units
Shape { appearance Appearance { material Material { diffuseColor 0.20784313725490197 0.2784313725490196 0.3215686274509804 } } geometry IndexedFaceSet { solid FALSE coord Coordinate { point [-0.59055118 2.75590551 0.39370079, 7.28346457 2.75590551 0.39370079, 7.28346457 4.72440945 0.39370079, -0.59055118 4.72440945 0.39370079, -0.59055118 2.75590551 7.87401575, 7.28346457 2.75590551 7.87401575, 7.28346457 4.72440945 7.87401575, -0.59055118 4.72440945 7.87401575] } coordIndex [0 3 2 1 -1, 4 5 6 7 -1, 0 1 5 4 -1, 1 2 6 5 -1, 2 3 7 6 -1, 3 0 4 7 -1] } }
Shape { appearance Appearance { material Material { diffuseColor 0.7686274509803922 0.8 0.8156862745098039 } } geometry IndexedFaceSet { solid FALSE coord Coordinate { point [0.08661417 0.00000000 -1.18110236, 0.06124547 0.06124547 -1.18110236, 0.00000000 0.08661417 -1.18110236, -0.06124547 0.06124547 -1.18110236, -0.08661417 0.00000000 -1.18110236, -0.06124547 -0.06124547 -1.18110236, -0.00000000 -0.08661417 -1.18110236, 0.06124547 -0.06124547 -1.18110236, 0.08661417 0.00000000 0.78740157, 0.06124547 0.06124547 0.78740157, 0.00000000 0.08661417 0.78740157, -0.06124547 0.06124547 0.78740157, -0.08661417 0.00000000 0.78740157, -0.06124547 -0.06124547 0.78740157, -0.00000000 -0.08661417 0.78740157, 0.06124547 -0.06124547 0.78740157] } coordIndex [7 6 5 4 3 2 1 0 -1, 8 9 10 11 12 13 14 15 -1, 0 1 9 8 -1, 1 2 10 9 -1, 2 3 11 10 -1, 3 4 12 11 -1, 4 5 13 12 -1, 5 6 14 13 -1, 6 7 15 14 -1, 7 0 8 15 -1] } }
Shape { appearance Appearance { material Material { diffuseColor 0.7686274509803922 0.8 0.8156862745098039 } } geometry IndexedFaceSet { solid FALSE coord Coordinate { point [0.75590551 2.00000000 -1.18110236, 0.73053681 2.06124547 -1.18110236, 0.66929134 2.08661417 -1.18110236, 0.60804587 2.06124547 -1.18110236, 0.58267717 2.00000000 -1.18110236, 0.60804587 1.93875453 -1.18110236, 0.66929134 1.91338583 -1.18110236, 0.73053681 1.93875453 -1.18110236, 0.75590551 2.00000000 0.78740157, 0.73053681 2.06124547 0.78740157, 0.66929134 2.08661417 0.78740157, 0.60804587 2.06124547 0.78740157, 0.58267717 2.00000000 0.78740157, 0.60804587 1.93875453 0.78740157, 0.66929134 1.91338583 0.78740157, 0.73053681 1.93875453 0.78740157] } coordIndex [7 6 5 4 3 2 1 0 -1, 8 9 10 11 12 13 14 15 -1, 0 1 9 8 -1, 1 2 10 9 -1, 2 3 11 10 -1, 3 4 12 11 -1, 4 5 13 12 -1, 5 6 14 13 -1, 6 7 15 14 -1, 7 0 8 15 -1] } }
Shape { appearance Appearance { material Material { diffuseColor 0.7686274509803922 0.8 0.8156862745098039 } } geometry IndexedFaceSet { solid FALSE coord Coordinate { point [1.42519685 0.00000000 -1.18110236, 1.39982815 0.06124547 -1.18110236, 1.33858268 0.08661417 -1.18110236, 1.27733721 0.06124547 -1.18110236, 1.25196850 0.00000000 -1.18110236, 1.27733721 -0.06124547 -1.18110236, 1.33858268 -0.08661417 -1.18110236, 1.39982815 -0.06124547 -1.18110236, 1.42519685 0.00000000 0.78740157, 1.39982815 0.06124547 0.78740157, 1.33858268 0.08661417 0.78740157, 1.27733721 0.06124547 0.78740157, 1.25196850 0.00000000 0.78740157, 1.27733721 -0.06124547 0.78740157, 1.33858268 -0.08661417 0.78740157, 1.39982815 -0.06124547 0.78740157] } coordIndex [7 6 5 4 3 2 1 0 -1, 8 9 10 11 12 13 14 15 -1, 0 1 9 8 -1, 1 2 10 9 -1, 2 3 11 10 -1, 3 4 12 11 -1, 4 5 13 12 -1, 5 6 14 13 -1, 6 7 15 14 -1, 7 0 8 15 -1] } }
Shape { appearance Appearance { material Material { diffuseColor 0.7686274509803922 0.8 0.8156862745098039 } } geometry IndexedFaceSet { solid FALSE coord Coordinate { point [2.09448819 2.00000000 -1.18110236, 2.06911948 2.06124547 -1.18110236, 2.00787402 2.08661417 -1.18110236, 1.94662855 2.06124547 -1.18110236, 1.92125984 2.00000000 -1.18110236, 1.94662855 1.93875453 -1.18110236, 2.00787402 1.91338583 -1.18110236, 2.06911948 1.93875453 -1.18110236, 2.09448819 2.00000000 0.78740157, 2.06911948 2.06124547 0.78740157, 2.00787402 2.08661417 0.78740157, 1.94662855 2.06124547 0.78740157, 1.92125984 2.00000000 0.78740157, 1.94662855 1.93875453 0.78740157, 2.00787402 1.91338583 0.78740157, 2.06911948 1.93875453 0.78740157] } coordIndex [7 6 5 4 3 2 1 0 -1, 8 9 10 11 12 13 14 15 -1, 0 1 9 8 -1, 1 2 10 9 -1, 2 3 11 10 -1, 3 4 12 11 -1, 4 5 13 12 -1, 5 6 14 13 -1, 6 7 15 14 -1, 7 0 8 15 -1] } }
Shape { appearance Appearance { material Material { diffuseColor 0.7686274509803922 0.8 0.8156862745098039 } } geometry IndexedFaceSet { solid FALSE coord Coordinate { point [2.76377953 0.00000000 -1.18110236, 2.73841082 0.06124547 -1.18110236, 2.67716535 0.08661417 -1.18110236, 2.61591989 0.06124547 -1.18110236, 2.59055118 0.00000000 -1.18110236, 2.61591989 -0.06124547 -1.18110236, 2.67716535 -0.08661417 -1.18110236, 2.73841082 -0.06124547 -1.18110236, 2.76377953 0.00000000 0.78740157, 2.73841082 0.06124547 0.78740157, 2.67716535 0.08661417 0.78740157, 2.61591989 0.06124547 0.78740157, 2.59055118 0.00000000 0.78740157, 2.61591989 -0.06124547 0.78740157, 2.67716535 -0.08661417 0.78740157, 2.73841082 -0.06124547 0.78740157] } coordIndex [7 6 5 4 3 2 1 0 -1, 8 9 10 11 12 13 14 15 -1, 0 1 9 8 -1, 1 2 10 9 -1, 2 3 11 10 -1, 3 4 12 11 -1, 4 5 13 12 -1, 5 6 14 13 -1, 6 7 15 14 -1, 7 0 8 15 -1] } }
Shape { appearance Appearance { material Material { diffuseColor 0.7686274509803922 0.8 0.8156862745098039 } } geometry IndexedFaceSet { solid FALSE coord Coordinate { point [3.43307087 2.00000000 -1.18110236, 3.40770216 2.06124547 -1.18110236, 3.34645669 2.08661417 -1.18110236, 3.28521122 2.06124547 -1.18110236, 3.25984252 2.00000000 -1.18110236, 3.28521122 1.93875453 -1.18110236, 3.34645669 1.91338583 -1.18110236, 3.40770216 1.93875453 -1.18110236, 3.43307087 2.00000000 0.78740157, 3.40770216 2.06124547 0.78740157, 3.34645669 2.08661417 0.78740157, 3.28521122 2.06124547 0.78740157, 3.25984252 2.00000000 0.78740157, 3.28521122 1.93875453 0.78740157, 3.34645669 1.91338583 0.78740157, 3.40770216 1.93875453 0.78740157] } coordIndex [7 6 5 4 3 2 1 0 -1, 8 9 10 11 12 13 14 15 -1, 0 1 9 8 -1, 1 2 10 9 -1, 2 3 11 10 -1, 3 4 12 11 -1, 4 5 13 12 -1, 5 6 14 13 -1, 6 7 15 14 -1, 7 0 8 15 -1] } }
Shape { appearance Appearance { material Material { diffuseColor 0.7686274509803922 0.8 0.8156862745098039 } } geometry IndexedFaceSet { solid FALSE coord Coordinate { point [4.10236220 0.00000000 -1.18110236, 4.07699350 0.06124547 -1.18110236, 4.01574803 0.08661417 -1.18110236, 3.95450256 0.06124547 -1.18110236, 3.92913386 0.00000000 -1.18110236, 3.95450256 -0.06124547 -1.18110236, 4.01574803 -0.08661417 -1.18110236, 4.07699350 -0.06124547 -1.18110236, 4.10236220 0.00000000 0.78740157, 4.07699350 0.06124547 0.78740157, 4.01574803 0.08661417 0.78740157, 3.95450256 0.06124547 0.78740157, 3.92913386 0.00000000 0.78740157, 3.95450256 -0.06124547 0.78740157, 4.01574803 -0.08661417 0.78740157, 4.07699350 -0.06124547 0.78740157] } coordIndex [7 6 5 4 3 2 1 0 -1, 8 9 10 11 12 13 14 15 -1, 0 1 9 8 -1, 1 2 10 9 -1, 2 3 11 10 -1, 3 4 12 11 -1, 4 5 13 12 -1, 5 6 14 13 -1, 6 7 15 14 -1, 7 0 8 15 -1] } }
Shape { appearance Appearance { material Material { diffuseColor 0.7686274509803922 0.8 0.8156862745098039 } } geometry IndexedFaceSet { solid FALSE coord Coordinate { point [4.77165354 2.00000000 -1.18110236, 4.74628484 2.06124547 -1.18110236, 4.68503937 2.08661417 -1.18110236, 4.62379390 2.06124547 -1.18110236, 4.59842520 2.00000000 -1.18110236, 4.62379390 1.93875453 -1.18110236, 4.68503937 1.91338583 -1.18110236, 4.74628484 1.93875453 -1.18110236, 4.77165354 2.00000000 0.78740157, 4.74628484 2.06124547 0.78740157, 4.68503937 2.08661417 0.78740157, 4.62379390 2.06124547 0.78740157, 4.59842520 2.00000000 0.78740157, 4.62379390 1.93875453 0.78740157, 4.68503937 1.91338583 0.78740157, 4.74628484 1.93875453 0.78740157] } coordIndex [7 6 5 4 3 2 1 0 -1, 8 9 10 11 12 13 14 15 -1, 0 1 9 8 -1, 1 2 10 9 -1, 2 3 11 10 -1, 3 4 12 11 -1, 4 5 13 12 -1, 5 6 14 13 -1, 6 7 15 14 -1, 7 0 8 15 -1] } }
Shape { appearance Appearance { material Material { diffuseColor 0.7686274509803922 0.8 0.8156862745098039 } } geometry IndexedFaceSet { solid FALSE coord Coordinate { point [5.44094488 0.00000000 -1.18110236, 5.41557618 0.06124547 -1.18110236, 5.35433071 0.08661417 -1.18110236, 5.29308524 0.06124547 -1.18110236, 5.26771654 0.00000000 -1.18110236, 5.29308524 -0.06124547 -1.18110236, 5.35433071 -0.08661417 -1.18110236, 5.41557618 -0.06124547 -1.18110236, 5.44094488 0.00000000 0.78740157, 5.41557618 0.06124547 0.78740157, 5.35433071 0.08661417 0.78740157, 5.29308524 0.06124547 0.78740157, 5.26771654 0.00000000 0.78740157, 5.29308524 -0.06124547 0.78740157, 5.35433071 -0.08661417 0.78740157, 5.41557618 -0.06124547 0.78740157] } coordIndex [7 6 5 4 3 2 1 0 -1, 8 9 10 11 12 13 14 15 -1, 0 1 9 8 -1, 1 2 10 9 -1, 2 3 11 10 -1, 3 4 12 11 -1, 4 5 13 12 -1, 5 6 14 13 -1, 6 7 15 14 -1, 7 0 8 15 -1] } }
Shape { appearance Appearance { material Material { diffuseColor 0.7686274509803922 0.8 0.8156862745098039 } } geometry IndexedFaceSet { solid FALSE coord Coordinate { point [6.11023622 2.00000000 -1.18110236, 6.08486752 2.06124547 -1.18110236, 6.02362205 2.08661417 -1.18110236, 5.96237658 2.06124547 -1.18110236, 5.93700787 2.00000000 -1.18110236, 5.96237658 1.93875453 -1.18110236, 6.02362205 1.91338583 -1.18110236, 6.08486752 1.93875453 -1.18110236, 6.11023622 2.00000000 0.78740157, 6.08486752 2.06124547 0.78740157, 6.02362205 2.08661417 0.78740157, 5.96237658 2.06124547 0.78740157, 5.93700787 2.00000000 0.78740157, 5.96237658 1.93875453 0.78740157, 6.02362205 1.91338583 0.78740157, 6.08486752 1.93875453 0.78740157] } coordIndex [7 6 5 4 3 2 1 0 -1, 8 9 10 11 12 13 14 15 -1, 0 1 9 8 -1, 1 2 10 9 -1, 2 3 11 10 -1, 3 4 12 11 -1, 4 5 13 12 -1, 5 6 14 13 -1, 6 7 15 14 -1, 7 0 8 15 -1] } }
Shape { appearance Appearance { material Material { diffuseColor 0.7686274509803922 0.8 0.8156862745098039 } } geometry IndexedFaceSet { solid FALSE coord Coordinate { point [6.77952756 0.00000000 -1.18110236, 6.75415886 0.06124547 -1.18110236, 6.69291339 0.08661417 -1.18110236, 6.63166792 0.06124547 -1.18110236, 6.60629921 0.00000000 -1.18110236, 6.63166792 -0.06124547 -1.18110236, 6.69291339 -0.08661417 -1.18110236, 6.75415886 -0.06124547 -1.18110236, 6.77952756 0.00000000 0.78740157, 6.75415886 0.06124547 0.78740157, 6.69291339 0.08661417 0.78740157, 6.63166792 0.06124547 0.78740157, 6.60629921 0.00000000 0.78740157, 6.63166792 -0.06124547 0.78740157, 6.69291339 -0.08661417 0.78740157, 6.75415886 -0.06124547 0.78740157] } coordIndex [7 6 5 4 3 2 1 0 -1, 8 9 10 11 12 13 14 15 -1, 0 1 9 8 -1, 1 2 10 9 -1, 2 3 11 10 -1, 3 4 12 11 -1, 4 5 13 12 -1, 5 6 14 13 -1, 6 7 15 14 -1, 7 0 8 15 -1] } }
