<?xml version="1.0" standalone="no"?>
 <!DOCTYPE svg PUBLIC "-//W3C//DTD SVG 1.1//EN"
 "http://www.w3.org/Graphics/SVG/1.1/DTD/svg11.dtd">
<svg
  xmlns:svg="http://www.w3.org/2000/svg"
  xmlns="http://www.w3.org/2000/svg"
  xmlns:xlink="http://www.w3.org/1999/xlink"
  xmlns:inkscape="http://www.inkscape.org/namespaces/inkscape"
  version="1.1"
  width="114.9858mm" height="89.9922mm" viewBox="0.0000 0.0000 114.9858 89.9922">
<title>SVG Image created as mono-top.svg date 2026-09-24T11:17:31 </title>
  <desc>Image generated by PCBNEW </desc>
<g style="fill:#000000; fill-opacity:1.0000;stroke:#000000; stroke-opacity:1.0000;
stroke-linecap:round; stroke-linejoin:round;"
 transform="translate(0 0) scale(1 1)">
</g>
<g style="fill:#C83434; fill-opacity:1.0000; stroke:none;">
<circle cx="70.0000" cy="14.5000" r="0.9000" />
<circle cx="62.5000" cy="14.5000" r="0.9000" />
<circle cx="46.0000" cy="54.0000" r="1.2000" />
<circle cx="26.0000" cy="54.0000" r="1.2000" />
<circle cx="86.0000" cy="8.0000" r="1.0000" />
<circle cx="71.0000" cy="8.0000" r="1.0000" />
<circle cx="112.0000" cy="53.0000" r="1.3000" />
<circle cx="62.0000" cy="53.0000" r="1.3000" />
<circle cx="45.7200" cy="77.0000" r="1.5000" />
<circle cx="50.8000" cy="77.0000" r="1.5000" />
<circle cx="55.8800" cy="77.0000" r="1.5000" />
<circle cx="36.0000" cy="34.5000" r="1.0000" />
<circle cx="41.0000" cy="34.5000" r="1.0000" />
<circle cx="39.0000" cy="14.0000" r="1.0000" />
<circle cx="40.7000" cy="8.9200" r="1.0000" />
<circle cx="42.4000" cy="14.0000" r="1.0000" />
<circle cx="44.1000" cy="8.9200" r="1.0000" />
<circle cx="45.8000" cy="14.0000" r="1.0000" />
<circle cx="47.5000" cy="8.9200" r="1.0000" />
<circle cx="49.2000" cy="14.0000" r="1.0000" />
<circle cx="50.9000" cy="8.9200" r="1.0000" />
<circle cx="52.6000" cy="14.0000" r="1.0000" />
<circle cx="54.3000" cy="8.9200" r="1.0000" />
<circle cx="56.0000" cy="14.0000" r="1.0000" />
<circle cx="55.0000" cy="45.0000" r="0.9000" />
<circle cx="55.0000" cy="50.0000" r="0.9000" />
<circle cx="64.0000" cy="18.0000" r="0.9000" />
<circle cx="64.0000" cy="25.5000" r="0.9000" />
<circle cx="50.8000" cy="24.5000" r="0.9000" />
<circle cx="45.8000" cy="24.5000" r="0.9000" />
<circle cx="110.0000" cy="72.0000" r="0.9000" />
<circle cx="110.0000" cy="74.5400" r="0.9000" />
<circle cx="10.0000" cy="76.0000" r="1.5000" />
<circle cx="15.0800" cy="76.0000" r="1.5000" />
<circle cx="95.0000" cy="83.0000" r="1.0000" />
<circle cx="90.0000" cy="83.0000" r="1.0000" />
<circle cx="54.0000" cy="34.5000" r="1.0000" />
<circle cx="59.0000" cy="34.5000" r="1.0000" />
<circle cx="45.8000" cy="19.0000" r="0.9000" />
<circle cx="50.8000" cy="19.0000" r="0.9000" />
<circle cx="20.5000" cy="45.0000" r="1.2000" />
<circle cx="20.5000" cy="65.0000" r="1.2000" />
<circle cx="73.0000" cy="14.5000" r="0.9000" />
<circle cx="80.5000" cy="14.5000" r="0.9000" />
<circle cx="67.5000" cy="8.0000" r="0.9000" />
<circle cx="60.0000" cy="8.0000" r="0.9000" />
<circle cx="100.0000" cy="66.0000" r="0.9000" />
<circle cx="100.0000" cy="73.5000" r="0.9000" />
<circle cx="68.0000" cy="25.5000" r="0.9000" />
<circle cx="68.0000" cy="18.0000" r="0.9000" />
<circle cx="9.5000" cy="45.0000" r="1.5000" />
<circle cx="9.5000" cy="65.0000" r="1.5000" />
<circle cx="94.0000" cy="27.0000" r="1.5000" />
<circle cx="94.0000" cy="32.0800" r="1.5000" />
</g>
<g style="fill:none;
stroke:#C83434; stroke-width:0.3500; stroke-opacity:1;
stroke-linecap:round; stroke-linejoin:round;">
<path d="M60.0000 8.0000
L62.5000 14.5000
" />
<path d="M54.3000 8.9200
L60.0000 8.0000
" />
</g>
<g style="fill:none;
stroke:#C83434; stroke-width:0.8000; stroke-opacity:1;
stroke-linecap:round; stroke-linejoin:round;">
<path d="M55.0000 50.0000
L46.0000 54.0000
" />
</g>
<g style="fill:none;
stroke:#C83434; stroke-width:3.0000; stroke-opacity:1;
stroke-linecap:round; stroke-linejoin:round;">
<path d="M34.0000 31.5000
L22.0000 43.5000
" />
</g>
<g style="fill:none;
stroke:#C83434; stroke-width:2.5000; stroke-opacity:1;
stroke-linecap:round; stroke-linejoin:round;">
<path d="M40.5000 17.5000
L40.5000 25.0000
" />
</g>
<g style="fill:none;
stroke:#C83434; stroke-width:1.5000; stroke-opacity:1;
stroke-linecap:round; stroke-linejoin:round;">
<path d="M9.5000 45.0000
L20.5000 45.0000
" />
</g>
<g style="fill:none;
stroke:#C83434; stroke-width:2.0000; stroke-opacity:1;
stroke-linecap:round; stroke-linejoin:round;">
<path d="M42.4000 14.0000
L40.5000 17.5000
" />
</g>
<g style="fill:none;
stroke:#C83434; stroke-width:3.0000; stroke-opacity:1;
stroke-linecap:round; stroke-linejoin:round;">
<path d="M22.0000 43.5000
L9.5000 45.0000
" />
</g>
<g style="fill:none;
stroke:#C83434; stroke-width:1.2000; stroke-opacity:1;
stroke-linecap:round; stroke-linejoin:round;">
<path d="M26.0000 54.0000
L22.0000 43.5000
" />
</g>
<g style="fill:none;
stroke:#C83434; stroke-width:3.0000; stroke-opacity:1;
stroke-linecap:round; stroke-linejoin:round;">
<path d="M40.5000 25.0000
L34.0000 31.5000
" />
</g>
<g style="fill:none;
stroke:#C83434; stroke-width:0.3500; stroke-opacity:1;
stroke-linecap:round; stroke-linejoin:round;">
<path d="M80.5000 14.5000
L86.0000 8.0000
" />
<path d="M91.0000 24.0000
L94.0000 27.0000
" />
<path d="M91.0000 8.0000
L91.0000 24.0000
" />
<path d="M86.0000 8.0000
L91.0000 8.0000
" />
<path d="M67.5000 8.0000
L71.0000 8.0000
" />
<path d="M66.0000 50.0000
L62.0000 53.0000
" />
<path d="M66.0000 28.0000
L66.0000 50.0000
" />
<path d="M68.0000 25.5000
L66.0000 28.0000
" />
</g>
<g style="fill:none;
stroke:#C83434; stroke-width:1.2000; stroke-opacity:1;
stroke-linecap:round; stroke-linejoin:round;">
<path d="M39.0000 14.0000
L39.0000 12.0000
" />
</g>
<g style="fill:none;
stroke:#C83434; stroke-width:3.0000; stroke-opacity:1;
stroke-linecap:round; stroke-linejoin:round;">
<path d="M40.0000 70.0000
L36.0000 62.0000
" />
</g>
<g style="fill:none;
stroke:#C83434; stroke-width:1.2000; stroke-opacity:1;
stroke-linecap:round; stroke-linejoin:round;">
<path d="M45.8000 12.0000
L45.8000 14.0000
" />
<path d="M39.0000 12.0000
L45.8000 12.0000
" />
</g>
<g style="fill:none;
stroke:#C83434; stroke-width:3.0000; stroke-opacity:1;
stroke-linecap:round; stroke-linejoin:round;">
<path d="M36.0000 62.0000
L36.0000 34.5000
" />
<path d="M45.7200 77.0000
L40.0000 70.0000
" />
</g>
<g style="fill:none;
stroke:#C83434; stroke-width:1.0000; stroke-opacity:1;
stroke-linecap:round; stroke-linejoin:round;">
<path d="M45.8000 19.0000
L45.8000 14.0000
" />
</g>
<g style="fill:none;
stroke:#C83434; stroke-width:0.8000; stroke-opacity:1;
stroke-linecap:round; stroke-linejoin:round;">
<path d="M104.0000 86.0000
L113.0000 78.0000
" />
</g>
<g style="fill:none;
stroke:#C83434; stroke-width:3.0000; stroke-opacity:1;
stroke-linecap:round; stroke-linejoin:round;">
<path d="M58.0000 72.0000
L58.0000 36.0000
" />
</g>
<g style="fill:none;
stroke:#C83434; stroke-width:1.5000; stroke-opacity:1;
stroke-linecap:round; stroke-linejoin:round;">
<path d="M59.0000 29.0000
L47.6000 26.3000
" />
<path d="M47.6000 26.3000
L45.8000 24.5000
" />
</g>
<g style="fill:none;
stroke:#C83434; stroke-width:3.0000; stroke-opacity:1;
stroke-linecap:round; stroke-linejoin:round;">
<path d="M58.0000 36.0000
L59.0000 34.5000
" />
</g>
<g style="fill:none;
stroke:#C83434; stroke-width:0.8000; stroke-opacity:1;
stroke-linecap:round; stroke-linejoin:round;">
<path d="M55.8800 77.0000
L62.0000 86.0000
" />
<path d="M62.0000 86.0000
L104.0000 86.0000
" />
<path d="M113.0000 76.0000
L110.0000 74.5400
" />
<path d="M113.0000 78.0000
L113.0000 76.0000
" />
</g>
<g style="fill:none;
stroke:#C83434; stroke-width:3.0000; stroke-opacity:1;
stroke-linecap:round; stroke-linejoin:round;">
<path d="M55.8800 77.0000
L58.0000 72.0000
" />
</g>
<g style="fill:none;
stroke:#C83434; stroke-width:1.5000; stroke-opacity:1;
stroke-linecap:round; stroke-linejoin:round;">
<path d="M59.0000 34.5000
L59.0000 29.0000
" />
</g>
<g style="fill:none;
stroke:#C83434; stroke-width:0.3500; stroke-opacity:1;
stroke-linecap:round; stroke-linejoin:round;">
<path d="M50.9000 8.9200
L50.9000 4.0000
" />
<path d="M90.0000 80.0000
L90.0000 83.0000
" />
<path d="M100.0000 66.0000
L97.0000 68.0000
" />
<path d="M50.9000 4.0000
L98.0000 4.0000
" />
<path d="M97.0000 68.0000
L90.0000 80.0000
" />
<path d="M98.0000 4.0000
L98.0000 62.0000
" />
<path d="M98.0000 62.0000
L100.0000 66.0000
" />
<path d="M64.0000 18.0000
L68.0000 18.0000
" />
<path d="M52.6000 14.0000
L55.5000 16.5000
" />
<path d="M55.5000 16.5000
L64.0000 18.0000
" />
<path d="M100.0000 73.5000
L110.0000 72.0000
" />
</g>
<g style="fill:none;
stroke:#C83434; stroke-width:3.0000; stroke-opacity:1;
stroke-linecap:round; stroke-linejoin:round;">
<path d="M9.5000 65.0000
L10.0000 76.0000
" />
<path d="M9.5000 65.0000
L20.5000 65.0000
" />
</g>
<g style="fill:none;
stroke:#D0D2CD; stroke-width:0.0500; stroke-opacity:1;
stroke-linecap:round; stroke-linejoin:round;">
<path d="M0.0000 0.0000
L115.0000 0.0000
" />
<path d="M0.0000 90.0000
L0.0000 0.0000
" />
<path d="M115.0000 0.0000
L115.0000 90.0000
" />
<path d="M115.0000 90.0000
L0.0000 90.0000
" />
</g>
<g style="fill:#FFFFFF; fill-opacity:1.0000; stroke:none;">
<circle cx="70.0000" cy="14.5000" r="0.4000" />
</g>
<g style="fill:#FFFFFF; fill-opacity:1.0000; stroke:none;">
<circle cx="62.5000" cy="14.5000" r="0.4000" />
</g>
<g style="fill:#FFFFFF; fill-opacity:1.0000; stroke:none;">
<circle cx="46.0000" cy="54.0000" r="0.5000" />
</g>
<g style="fill:#FFFFFF; fill-opacity:1.0000; stroke:none;">
<circle cx="26.0000" cy="54.0000" r="0.5000" />
</g>
<g style="fill:#FFFFFF; fill-opacity:1.0000; stroke:none;">
<circle cx="86.0000" cy="8.0000" r="0.5000" />
</g>
<g style="fill:#FFFFFF; fill-opacity:1.0000; stroke:none;">
<circle cx="71.0000" cy="8.0000" r="0.5000" />
</g>
<g style="fill:#FFFFFF; fill-opacity:1.0000; stroke:none;">
<circle cx="112.0000" cy="53.0000" r="0.6000" />
</g>
<g style="fill:#FFFFFF; fill-opacity:1.0000; stroke:none;">
<circle cx="62.0000" cy="53.0000" r="0.6000" />
</g>
<g style="fill:#FFFFFF; fill-opacity:1.0000; stroke:none;">
<circle cx="45.7200" cy="77.0000" r="0.6500" />
</g>
<g style="fill:#FFFFFF; fill-opacity:1.0000; stroke:none;">
<circle cx="50.8000" cy="77.0000" r="0.6500" />
</g>
<g style="fill:#FFFFFF; fill-opacity:1.0000; stroke:none;">
<circle cx="55.8800" cy="77.0000" r="0.6500" />
</g>
<g style="fill:#FFFFFF; fill-opacity:1.0000; stroke:none;">
<circle cx="36.0000" cy="34.5000" r="0.5000" />
</g>
<g style="fill:#FFFFFF; fill-opacity:1.0000; stroke:none;">
<circle cx="41.0000" cy="34.5000" r="0.5000" />
</g>
<g style="fill:#FFFFFF; fill-opacity:1.0000; stroke:none;">
<circle cx="39.0000" cy="14.0000" r="0.5500" />
</g>
<g style="fill:#FFFFFF; fill-opacity:1.0000; stroke:none;">
<circle cx="40.7000" cy="8.9200" r="0.5500" />
</g>
<g style="fill:#FFFFFF; fill-opacity:1.0000; stroke:none;">
<circle cx="42.4000" cy="14.0000" r="0.5500" />
</g>
<g style="fill:#FFFFFF; fill-opacity:1.0000; stroke:none;">
<circle cx="44.1000" cy="8.9200" r="0.5500" />
</g>
<g style="fill:#FFFFFF; fill-opacity:1.0000; stroke:none;">
<circle cx="45.8000" cy="14.0000" r="0.5500" />
</g>
<g style="fill:#FFFFFF; fill-opacity:1.0000; stroke:none;">
<circle cx="47.5000" cy="8.9200" r="0.5500" />
</g>
<g style="fill:#FFFFFF; fill-opacity:1.0000; stroke:none;">
<circle cx="49.2000" cy="14.0000" r="0.5500" />
</g>
<g style="fill:#FFFFFF; fill-opacity:1.0000; stroke:none;">
<circle cx="50.9000" cy="8.9200" r="0.5500" />
</g>
<g style="fill:#FFFFFF; fill-opacity:1.0000; stroke:none;">
<circle cx="52.6000" cy="14.0000" r="0.5500" />
</g>
<g style="fill:#FFFFFF; fill-opacity:1.0000; stroke:none;">
<circle cx="54.3000" cy="8.9200" r="0.5500" />
</g>
<g style="fill:#FFFFFF; fill-opacity:1.0000; stroke:none;">
<circle cx="56.0000" cy="14.0000" r="0.5500" />
</g>
<g style="fill:#FFFFFF; fill-opacity:1.0000; stroke:none;">
<circle cx="55.0000" cy="45.0000" r="0.4000" />
</g>
<g style="fill:#FFFFFF; fill-opacity:1.0000; stroke:none;">
<circle cx="55.0000" cy="50.0000" r="0.4000" />
</g>
<g style="fill:#000000; fill-opacity:1.0000; stroke:none;">
<circle cx="4.0000" cy="86.0000" r="1.6000" />
</g>
<g style="fill:#FFFFFF; fill-opacity:1.0000; stroke:none;">
<circle cx="64.0000" cy="18.0000" r="0.4000" />
</g>
<g style="fill:#FFFFFF; fill-opacity:1.0000; stroke:none;">
<circle cx="64.0000" cy="25.5000" r="0.4000" />
</g>
<g style="fill:#FFFFFF; fill-opacity:1.0000; stroke:none;">
<circle cx="50.8000" cy="24.5000" r="0.4000" />
</g>
<g style="fill:#FFFFFF; fill-opacity:1.0000; stroke:none;">
<circle cx="45.8000" cy="24.5000" r="0.4000" />
</g>
<g style="fill:#000000; fill-opacity:1.0000; stroke:none;">
<circle cx="111.0000" cy="4.0000" r="1.6000" />
</g>
<g style="fill:#FFFFFF; fill-opacity:1.0000; stroke:none;">
<circle cx="110.0000" cy="72.0000" r="0.5000" />
</g>
<g style="fill:#FFFFFF; fill-opacity:1.0000; stroke:none;">
<circle cx="110.0000" cy="74.5400" r="0.5000" />
</g>
<g style="fill:#FFFFFF; fill-opacity:1.0000; stroke:none;">
<circle cx="10.0000" cy="76.0000" r="0.6500" />
</g>
<g style="fill:#FFFFFF; fill-opacity:1.0000; stroke:none;">
<circle cx="15.0800" cy="76.0000" r="0.6500" />
</g>
<g style="fill:#FFFFFF; fill-opacity:1.0000; stroke:none;">
<circle cx="95.0000" cy="83.0000" r="0.5000" />
</g>
<g style="fill:#FFFFFF; fill-opacity:1.0000; stroke:none;">
<circle cx="90.0000" cy="83.0000" r="0.5000" />
</g>
<g style="fill:#FFFFFF; fill-opacity:1.0000; stroke:none;">
<circle cx="54.0000" cy="34.5000" r="0.5000" />
</g>
<g style="fill:#FFFFFF; fill-opacity:1.0000; stroke:none;">
<circle cx="59.0000" cy="34.5000" r="0.5000" />
</g>
<g style="fill:#FFFFFF; fill-opacity:1.0000; stroke:none;">
<circle cx="45.8000" cy="19.0000" r="0.4000" />
</g>
<g style="fill:#FFFFFF; fill-opacity:1.0000; stroke:none;">
<circle cx="50.8000" cy="19.0000" r="0.4000" />
</g>
<g style="fill:#FFFFFF; fill-opacity:1.0000; stroke:none;">
<circle cx="20.5000" cy="45.0000" r="0.5000" />
</g>
<g style="fill:#FFFFFF; fill-opacity:1.0000; stroke:none;">
<circle cx="20.5000" cy="65.0000" r="0.5000" />
</g>
<g style="fill:#FFFFFF; fill-opacity:1.0000; stroke:none;">
<circle cx="73.0000" cy="14.5000" r="0.4000" />
</g>
<g style="fill:#FFFFFF; fill-opacity:1.0000; stroke:none;">
<circle cx="80.5000" cy="14.5000" r="0.4000" />
</g>
<g style="fill:#FFFFFF; fill-opacity:1.0000; stroke:none;">
<circle cx="67.5000" cy="8.0000" r="0.4000" />
</g>
<g style="fill:#FFFFFF; fill-opacity:1.0000; stroke:none;">
<circle cx="60.0000" cy="8.0000" r="0.4000" />
</g>
<g style="fill:#000000; fill-opacity:1.0000; stroke:none;">
<circle cx="111.0000" cy="86.0000" r="1.6000" />
<circle cx="4.0000" cy="4.0000" r="1.6000" />
</g>
<g style="fill:#FFFFFF; fill-opacity:1.0000; stroke:none;">
<circle cx="100.0000" cy="66.0000" r="0.4000" />
</g>
<g style="fill:#FFFFFF; fill-opacity:1.0000; stroke:none;">
<circle cx="100.0000" cy="73.5000" r="0.4000" />
</g>
<g style="fill:#FFFFFF; fill-opacity:1.0000; stroke:none;">
<circle cx="68.0000" cy="25.5000" r="0.4000" />
</g>
<g style="fill:#FFFFFF; fill-opacity:1.0000; stroke:none;">
<circle cx="68.0000" cy="18.0000" r="0.4000" />
</g>
<g style="fill:#FFFFFF; fill-opacity:1.0000; stroke:none;">
<circle cx="9.5000" cy="45.0000" r="0.6500" />
</g>
<g style="fill:#FFFFFF; fill-opacity:1.0000; stroke:none;">
<circle cx="9.5000" cy="65.0000" r="0.6500" />
</g>
<g style="fill:#FFFFFF; fill-opacity:1.0000; stroke:none;">
<circle cx="94.0000" cy="27.0000" r="0.6500" />
</g>
<g style="fill:#FFFFFF; fill-opacity:1.0000; stroke:none;">
<circle cx="94.0000" cy="32.0800" r="0.6500" />
</g>
</svg>
