#VRML V2.0 utf8
# PROVISIONAL; NOT MANUFACTURER CAD; all coordinates in 0.1 inch units
Shape { appearance Appearance { material Material { diffuseColor 0.20784313725490197 0.2784313725490196 0.3215686274509804 } } geometry IndexedFaceSet { solid FALSE coord Coordinate { point [3.93700787 0.00000000 0.39370079, 3.86135937 0.76807213 0.39370079, 3.63732099 1.50662769 0.39370079, 3.27350241 2.18728438 0.39370079, 2.78388497 2.78388497 0.39370079, 2.18728438 3.27350241 0.39370079, 1.50662769 3.63732099 0.39370079, 0.76807213 3.86135937 0.39370079, 0.00000000 3.93700787 0.39370079, -0.76807213 3.86135937 0.39370079, -1.50662769 3.63732099 0.39370079, -2.18728438 3.27350241 0.39370079, -2.78388497 2.78388497 0.39370079, -3.27350241 2.18728438 0.39370079, -3.63732099 1.50662769 0.39370079, -3.86135937 0.76807213 0.39370079, -3.93700787 0.00000000 0.39370079, -3.86135937 -0.76807213 0.39370079, -3.63732099 -1.50662769 0.39370079, -3.27350241 -2.18728438 0.39370079, -2.78388497 -2.78388497 0.39370079, -2.18728438 -3.27350241 0.39370079, -1.50662769 -3.63732099 0.39370079, -0.76807213 -3.86135937 0.39370079, -0.00000000 -3.93700787 0.39370079, 0.76807213 -3.86135937 0.39370079, 1.50662769 -3.63732099 0.39370079, 2.18728438 -3.27350241 0.39370079, 2.78388497 -2.78388497 0.39370079, 3.27350241 -2.18728438 0.39370079, 3.63732099 -1.50662769 0.39370079, 3.86135937 -0.76807213 0.39370079, 3.93700787 0.00000000 16.53543307, 3.86135937 0.76807213 16.53543307, 3.63732099 1.50662769 16.53543307, 3.27350241 2.18728438 16.53543307, 2.78388497 2.78388497 16.53543307, 2.18728438 3.27350241 16.53543307, 1.50662769 3.63732099 16.53543307, 0.76807213 3.86135937 16.53543307, 0.00000000 3.93700787 16.53543307, -0.76807213 3.86135937 16.53543307, -1.50662769 3.63732099 16.53543307, -2.18728438 3.27350241 16.53543307, -2.78388497 2.78388497 16.53543307, -3.27350241 2.18728438 16.53543307, -3.63732099 1.50662769 16.53543307, -3.86135937 0.76807213 16.53543307, -3.93700787 0.00000000 16.53543307, -3.86135937 -0.76807213 16.53543307, -3.63732099 -1.50662769 16.53543307, -3.27350241 -2.18728438 16.53543307, -2.78388497 -2.78388497 16.53543307, -2.18728438 -3.27350241 16.53543307, -1.50662769 -3.63732099 16.53543307, -0.76807213 -3.86135937 16.53543307, -0.00000000 -3.93700787 16.53543307, 0.76807213 -3.86135937 16.53543307, 1.50662769 -3.63732099 16.53543307, 2.18728438 -3.27350241 16.53543307, 2.78388497 -2.78388497 16.53543307, 3.27350241 -2.18728438 16.53543307, 3.63732099 -1.50662769 16.53543307, 3.86135937 -0.76807213 16.53543307] } coordIndex [31 30 29 28 27 26 25 24 23 22 21 20 19 18 17 16 15 14 13 12 11 10 9 8 7 6 5 4 3 2 1 0 -1, 32 33 34 35 36 37 38 39 40 41 42 43 44 45 46 47 48 49 50 51 52 53 54 55 56 57 58 59 60 61 62 63 -1, 0 1 33 32 -1, 1 2 34 33 -1, 2 3 35 34 -1, 3 4 36 35 -1, 4 5 37 36 -1, 5 6 38 37 -1, 6 7 39 38 -1, 7 8 40 39 -1, 8 9 41 40 -1, 9 10 42 41 -1, 10 11 43 42 -1, 11 12 44 43 -1, 12 13 45 44 -1, 13 14 46 45 -1, 14 15 47 46 -1, 15 16 48 47 -1, 16 17 49 48 -1, 17 18 50 49 -1, 18 19 51 50 -1, 19 20 52 51 -1, 20 21 53 52 -1, 21 22 54 53 -1, 22 23 55 54 -1, 23 24 56 55 -1, 24 25 57 56 -1, 25 26 58 57 -1, 26 27 59 58 -1, 27 28 60 59 -1, 28 29 61 60 -1, 29 30 62 61 -1, 30 31 63 62 -1, 31 0 32 63 -1] } }
Shape { appearance Appearance { material Material { diffuseColor 0.7686274509803922 0.8 0.8156862745098039 } } geometry IndexedFaceSet { solid FALSE coord Coordinate { point [0.08661417 0.00000000 -1.18110236, 0.06124547 0.06124547 -1.18110236, 0.00000000 0.08661417 -1.18110236, -0.06124547 0.06124547 -1.18110236, -0.08661417 0.00000000 -1.18110236, -0.06124547 -0.06124547 -1.18110236, -0.00000000 -0.08661417 -1.18110236, 0.06124547 -0.06124547 -1.18110236, 0.08661417 0.00000000 0.78740157, 0.06124547 0.06124547 0.78740157, 0.00000000 0.08661417 0.78740157, -0.06124547 0.06124547 0.78740157, -0.08661417 0.00000000 0.78740157, -0.06124547 -0.06124547 0.78740157, -0.00000000 -0.08661417 0.78740157, 0.06124547 -0.06124547 0.78740157] } coordIndex [7 6 5 4 3 2 1 0 -1, 8 9 10 11 12 13 14 15 -1, 0 1 9 8 -1, 1 2 10 9 -1, 2 3 11 10 -1, 3 4 12 11 -1, 4 5 13 12 -1, 5 6 14 13 -1, 6 7 15 14 -1, 7 0 8 15 -1] } }
Shape { appearance Appearance { material Material { diffuseColor 0.7686274509803922 0.8 0.8156862745098039 } } geometry IndexedFaceSet { solid FALSE coord Coordinate { point [5.99212598 0.00000000 -1.18110236, 5.96675728 0.06124547 -1.18110236, 5.90551181 0.08661417 -1.18110236, 5.84426634 0.06124547 -1.18110236, 5.81889764 0.00000000 -1.18110236, 5.84426634 -0.06124547 -1.18110236, 5.90551181 -0.08661417 -1.18110236, 5.96675728 -0.06124547 -1.18110236, 5.99212598 0.00000000 0.78740157, 5.96675728 0.06124547 0.78740157, 5.90551181 0.08661417 0.78740157, 5.84426634 0.06124547 0.78740157, 5.81889764 0.00000000 0.78740157, 5.84426634 -0.06124547 0.78740157, 5.90551181 -0.08661417 0.78740157, 5.96675728 -0.06124547 0.78740157] } coordIndex [7 6 5 4 3 2 1 0 -1, 8 9 10 11 12 13 14 15 -1, 0 1 9 8 -1, 1 2 10 9 -1, 2 3 11 10 -1, 3 4 12 11 -1, 4 5 13 12 -1, 5 6 14 13 -1, 6 7 15 14 -1, 7 0 8 15 -1] } }
