<svg xmlns="http://www.w3.org/2000/svg" width="1060" height="1125" viewBox="0 0 1060 1125">
<rect width="1060" height="1125" fill="#101e28"/>
<g font-family="Arial, STHeiti, sans-serif">
<text x="60.00" y="46.00" fill="#f1f7f6" font-size="26" text-anchor="start">單聲道放大板 / PCB V0.3</text>
<text x="60.00" y="82.00" fill="#c6d9df" font-size="20" text-anchor="start">正面組裝圖｜元件位置、焊盤編號與極性</text>
<text x="60.00" y="112.00" fill="#eac180" font-size="16" text-anchor="start">100 x 90 mm | 板檔座標原點位於左上角</text>
<rect x="80" y="155" width="900" height="810" fill="#173d3b" stroke="#79ada2"/>
<polygon points="417.5,173.0 597.5,173.0 597.5,218.0 417.5,218.0" fill="#354752" stroke="#a1c2c6"/>
<text x="507.50" y="199.50" fill="#ffffff" font-size="12" text-anchor="middle">U1</text>
<polygon points="962.0,375.5 962.0,466.21999999999997 890.0,466.21999999999997 890.0,375.5" fill="#398797" stroke="#a1c2c6"/>
<text x="926.00" y="424.86" fill="#ffffff" font-size="12" text-anchor="middle">J1</text>
<polygon points="147.5,803.0 238.21999999999997,803.0 238.21999999999997,875.0 147.5,875.0" fill="#398797" stroke="#a1c2c6"/>
<text x="192.86" y="843.00" fill="#ffffff" font-size="12" text-anchor="middle">J2</text>
<polygon points="417.5,812.0 553.9399999999999,812.0 553.9399999999999,884.0 417.5,884.0" fill="#398797" stroke="#a1c2c6"/>
<text x="485.72" y="878.00" fill="#ffffff" font-size="12" text-anchor="middle">J5</text>
<polygon points="876.5,299.0 714.5,299.0 714.5,227.0 876.5,227.0" fill="#bb6554" stroke="#a1c2c6"/>
<text x="795.50" y="267.00" fill="#ffffff" font-size="12" text-anchor="middle">C1</text>
<polygon points="847.25,408.79999999999995 847.25,454.7 824.75,454.7 824.75,408.79999999999995" fill="#cd9b54" stroke="#a1c2c6"/>
<text x="836.00" y="435.75" fill="#ffffff" font-size="12" text-anchor="middle">R1</text>
<polygon points="681.1999999999999,274.25 635.3000000000001,274.25 635.3000000000001,251.75 681.1999999999999,251.75" fill="#cd9b54" stroke="#a1c2c6"/>
<text x="658.25" y="267.00" fill="#ffffff" font-size="12" text-anchor="middle">R6</text>
<polygon points="680.75,369.20000000000005 680.75,323.29999999999995 703.25,323.29999999999995 703.25,369.20000000000005" fill="#cd9b54" stroke="#a1c2c6"/>
<text x="692.00" y="350.25" fill="#ffffff" font-size="12" text-anchor="middle">R2</text>
<polygon points="564.2,337.25 518.3,337.25 518.3,314.75 564.2,314.75" fill="#cd9b54" stroke="#a1c2c6"/>
<text x="541.25" y="330.00" fill="#ffffff" font-size="12" text-anchor="middle">R4</text>
<polygon points="627.1999999999999,382.25 581.3,382.25 581.3,359.75 627.1999999999999,359.75" fill="#cd9b54" stroke="#a1c2c6"/>
<text x="604.25" y="375.00" fill="#ffffff" font-size="12" text-anchor="middle">R3</text>
<circle cx="669.5" cy="470.0" r="45.0" fill="#354752" stroke="#a1c2c6"/>
<text x="669.50" y="474.00" fill="#ffffff" font-size="12" text-anchor="middle">C2</text>
<polygon points="354.5,308.0 426.5,308.0 426.5,344.0 354.5,344.0" fill="#bb6554" stroke="#a1c2c6"/>
<text x="390.50" y="330.00" fill="#ffffff" font-size="12" text-anchor="middle">C3</text>
<polygon points="368.0,285.5 368.0,213.5 404.0,213.5 404.0,285.5" fill="#bb6554" stroke="#a1c2c6"/>
<text x="386.00" y="253.50" fill="#ffffff" font-size="12" text-anchor="middle">C4</text>
<circle cx="390.5" cy="524.0" r="56.25" fill="#354752" stroke="#a1c2c6"/>
<text x="390.50" y="528.00" fill="#ffffff" font-size="12" text-anchor="middle">C7</text>
<circle cx="543.5" cy="479.0" r="56.25" fill="#354752" stroke="#a1c2c6"/>
<text x="543.50" y="483.00" fill="#ffffff" font-size="12" text-anchor="middle">C6</text>
<polygon points="210.5,357.5 345.5,357.5 345.5,402.5 210.5,402.5" fill="#cd9b54" stroke="#a1c2c6"/>
<text x="278.00" y="384.00" fill="#ffffff" font-size="12" text-anchor="middle">R5</text>
<polygon points="138.5,299.0 210.5,299.0 210.5,335.0 138.5,335.0" fill="#bb6554" stroke="#a1c2c6"/>
<text x="174.50" y="321.00" fill="#ffffff" font-size="12" text-anchor="middle">C5</text>
<polygon points="233.0,578.0 232.99999999999997,722.0 106.99999999999997,722.0 107.0,578.0" fill="#be6f44" stroke="#a1c2c6"/>
<text x="170.00" y="654.00" fill="#ffffff" font-size="12" text-anchor="middle">L1</text>
<polygon points="309.5,582.5 309.5,717.5 264.5,717.5 264.5,582.5" fill="#cd9b54" stroke="#a1c2c6"/>
<text x="287.00" y="654.00" fill="#ffffff" font-size="12" text-anchor="middle">R7</text>
<polygon points="756.8000000000001,611.75 802.6999999999999,611.75 802.6999999999999,634.25 756.8000000000001,634.25" fill="#cd9b54" stroke="#a1c2c6"/>
<text x="779.75" y="627.00" fill="#ffffff" font-size="12" text-anchor="middle">R8</text>
<circle cx="761.75" cy="722.0" r="36.0" fill="#354752" stroke="#a1c2c6"/>
<text x="761.75" y="726.00" fill="#ffffff" font-size="12" text-anchor="middle">C8</text>
<polygon points="883.6999999999999,665.3 883.6999999999999,711.5600000000001 860.3000000000001,711.5600000000001 860.3000000000001,665.3" fill="#398797" stroke="#a1c2c6"/>
<text x="898.00" y="692.43" fill="#ffffff" font-size="12" text-anchor="middle">JP1</text>
<circle cx="431.0" cy="281.0" r="7.425" fill="#ecc77b"/><circle cx="431.0" cy="281.0" r="4.05" fill="#10232b"/>
<text x="431.00" y="295.00" fill="#fff6d1" font-size="10" text-anchor="middle">1</text>
<circle cx="446.3" cy="235.28" r="7.425" fill="#ecc77b"/><circle cx="446.3" cy="235.28" r="4.05" fill="#10232b"/>
<text x="446.30" y="224.28" fill="#fff6d1" font-size="10" text-anchor="middle">2</text>
<circle cx="461.59999999999997" cy="281.0" r="7.425" fill="#ecc77b"/><circle cx="461.59999999999997" cy="281.0" r="4.05" fill="#10232b"/>
<text x="461.60" y="295.00" fill="#fff6d1" font-size="10" text-anchor="middle">3</text>
<circle cx="476.90000000000003" cy="235.28" r="7.425" fill="#ecc77b"/><circle cx="476.90000000000003" cy="235.28" r="4.05" fill="#10232b"/>
<text x="476.90" y="224.28" fill="#fff6d1" font-size="10" text-anchor="middle">4</text>
<circle cx="492.2" cy="281.0" r="7.425" fill="#ecc77b"/><circle cx="492.2" cy="281.0" r="4.05" fill="#10232b"/>
<text x="492.20" y="295.00" fill="#fff6d1" font-size="10" text-anchor="middle">5</text>
<circle cx="507.5" cy="235.28" r="7.425" fill="#ecc77b"/><circle cx="507.5" cy="235.28" r="4.05" fill="#10232b"/>
<text x="507.50" y="224.28" fill="#fff6d1" font-size="10" text-anchor="middle">6</text>
<circle cx="522.8" cy="281.0" r="7.425" fill="#ecc77b"/><circle cx="522.8" cy="281.0" r="4.05" fill="#10232b"/>
<text x="522.80" y="295.00" fill="#fff6d1" font-size="10" text-anchor="middle">7</text>
<circle cx="538.0999999999999" cy="235.28" r="7.425" fill="#ecc77b"/><circle cx="538.0999999999999" cy="235.28" r="4.05" fill="#10232b"/>
<text x="538.10" y="224.28" fill="#fff6d1" font-size="10" text-anchor="middle">8</text>
<circle cx="553.4000000000001" cy="281.0" r="7.425" fill="#ecc77b"/><circle cx="553.4000000000001" cy="281.0" r="4.05" fill="#10232b"/>
<text x="553.40" y="295.00" fill="#fff6d1" font-size="10" text-anchor="middle">9</text>
<circle cx="568.699991" cy="235.28" r="7.425" fill="#ecc77b"/><circle cx="568.699991" cy="235.28" r="4.05" fill="#10232b"/>
<text x="568.70" y="224.28" fill="#fff6d1" font-size="10" text-anchor="middle">10</text>
<circle cx="584.0" cy="281.0" r="7.425" fill="#ecc77b"/><circle cx="584.0" cy="281.0" r="4.05" fill="#10232b"/>
<text x="584.00" y="295.00" fill="#fff6d1" font-size="10" text-anchor="middle">11</text>
<circle cx="926.0" cy="398.0" r="13.5" fill="#ecc77b"/><circle cx="926.0" cy="398.0" r="5.8500000000000005" fill="#10232b"/>
<text x="926.00" y="386.00" fill="#fff6d1" font-size="10" text-anchor="middle">1</text>
<circle cx="926.0" cy="443.71999999999997" r="13.5" fill="#ecc77b"/><circle cx="926.0" cy="443.71999999999997" r="5.8500000000000005" fill="#10232b"/>
<text x="926.00" y="431.72" fill="#fff6d1" font-size="10" text-anchor="middle">2</text>
<circle cx="170.0" cy="839.0" r="13.5" fill="#ecc77b"/><circle cx="170.0" cy="839.0" r="5.8500000000000005" fill="#10232b"/>
<text x="170.00" y="827.00" fill="#fff6d1" font-size="10" text-anchor="middle">1</text>
<circle cx="215.72" cy="839.0" r="13.5" fill="#ecc77b"/><circle cx="215.72" cy="839.0" r="5.8500000000000005" fill="#10232b"/>
<text x="215.72" y="827.00" fill="#fff6d1" font-size="10" text-anchor="middle">2</text>
<circle cx="440.0" cy="848.0" r="13.5" fill="#ecc77b"/><circle cx="440.0" cy="848.0" r="5.8500000000000005" fill="#10232b"/>
<text x="440.00" y="836.00" fill="#fff6d1" font-size="10" text-anchor="middle">1</text>
<circle cx="485.71999999999997" cy="848.0" r="13.5" fill="#ecc77b"/><circle cx="485.71999999999997" cy="848.0" r="5.8500000000000005" fill="#10232b"/>
<text x="485.72" y="836.00" fill="#fff6d1" font-size="10" text-anchor="middle">2</text>
<circle cx="531.4399999999999" cy="848.0" r="13.5" fill="#ecc77b"/><circle cx="531.4399999999999" cy="848.0" r="5.8500000000000005" fill="#10232b"/>
<text x="531.44" y="836.00" fill="#fff6d1" font-size="10" text-anchor="middle">3</text>
<circle cx="863.0" cy="263.0" r="9.0" fill="#ecc77b"/><circle cx="863.0" cy="263.0" r="4.5" fill="#10232b"/>
<text x="863.00" y="251.00" fill="#fff6d1" font-size="10" text-anchor="middle">1</text>
<circle cx="728.0" cy="263.0" r="9.0" fill="#ecc77b"/><circle cx="728.0" cy="263.0" r="4.5" fill="#10232b"/>
<text x="728.00" y="251.00" fill="#fff6d1" font-size="10" text-anchor="middle">2</text>
<circle cx="836.0" cy="398.0" r="8.1" fill="#ecc77b"/><circle cx="836.0" cy="398.0" r="3.6" fill="#10232b"/>
<text x="836.00" y="386.00" fill="#fff6d1" font-size="10" text-anchor="middle">1</text>
<circle cx="836.0" cy="465.5" r="8.1" fill="#ecc77b"/><circle cx="836.0" cy="465.5" r="3.6" fill="#10232b"/>
<text x="836.00" y="453.50" fill="#fff6d1" font-size="10" text-anchor="middle">2</text>
<circle cx="692.0" cy="263.0" r="8.1" fill="#ecc77b"/><circle cx="692.0" cy="263.0" r="3.6" fill="#10232b"/>
<text x="692.00" y="251.00" fill="#fff6d1" font-size="10" text-anchor="middle">1</text>
<circle cx="624.5" cy="263.0" r="8.1" fill="#ecc77b"/><circle cx="624.5" cy="263.0" r="3.6" fill="#10232b"/>
<text x="624.50" y="251.00" fill="#fff6d1" font-size="10" text-anchor="middle">2</text>
<circle cx="692.0" cy="380.0" r="8.1" fill="#ecc77b"/><circle cx="692.0" cy="380.0" r="3.6" fill="#10232b"/>
<text x="692.00" y="368.00" fill="#fff6d1" font-size="10" text-anchor="middle">1</text>
<circle cx="692.0" cy="312.5" r="8.1" fill="#ecc77b"/><circle cx="692.0" cy="312.5" r="3.6" fill="#10232b"/>
<text x="692.00" y="300.50" fill="#fff6d1" font-size="10" text-anchor="middle">2</text>
<circle cx="575.0" cy="326.0" r="8.1" fill="#ecc77b"/><circle cx="575.0" cy="326.0" r="3.6" fill="#10232b"/>
<text x="575.00" y="314.00" fill="#fff6d1" font-size="10" text-anchor="middle">1</text>
<circle cx="507.5" cy="326.0" r="8.1" fill="#ecc77b"/><circle cx="507.5" cy="326.0" r="3.6" fill="#10232b"/>
<text x="507.50" y="314.00" fill="#fff6d1" font-size="10" text-anchor="middle">2</text>
<circle cx="638.0" cy="371.0" r="8.1" fill="#ecc77b"/><circle cx="638.0" cy="371.0" r="3.6" fill="#10232b"/>
<text x="638.00" y="359.00" fill="#fff6d1" font-size="10" text-anchor="middle">1</text>
<circle cx="570.5" cy="371.0" r="8.1" fill="#ecc77b"/><circle cx="570.5" cy="371.0" r="3.6" fill="#10232b"/>
<text x="570.50" y="359.00" fill="#fff6d1" font-size="10" text-anchor="middle">2</text>
<circle cx="692.0" cy="470.0" r="9.0" fill="#ecc77b"/><circle cx="692.0" cy="470.0" r="4.05" fill="#10232b"/>
<text x="692.00" y="458.00" fill="#fff6d1" font-size="10" text-anchor="middle">1</text>
<circle cx="647.0" cy="470.0" r="9.0" fill="#ecc77b"/><circle cx="647.0" cy="470.0" r="4.05" fill="#10232b"/>
<text x="647.00" y="458.00" fill="#fff6d1" font-size="10" text-anchor="middle">2</text>
<circle cx="368.0" cy="326.0" r="8.1" fill="#ecc77b"/><circle cx="368.0" cy="326.0" r="3.6" fill="#10232b"/>
<text x="368.00" y="314.00" fill="#fff6d1" font-size="10" text-anchor="middle">1</text>
<circle cx="413.0" cy="326.0" r="8.1" fill="#ecc77b"/><circle cx="413.0" cy="326.0" r="3.6" fill="#10232b"/>
<text x="413.00" y="314.00" fill="#fff6d1" font-size="10" text-anchor="middle">2</text>
<circle cx="386.0" cy="272.0" r="8.1" fill="#ecc77b"/><circle cx="386.0" cy="272.0" r="3.6" fill="#10232b"/>
<text x="386.00" y="260.00" fill="#fff6d1" font-size="10" text-anchor="middle">1</text>
<circle cx="386.0" cy="227.0" r="8.1" fill="#ecc77b"/><circle cx="386.0" cy="227.0" r="3.6" fill="#10232b"/>
<text x="386.00" y="215.00" fill="#fff6d1" font-size="10" text-anchor="middle">2</text>
<circle cx="368.0" cy="524.0" r="9.0" fill="#ecc77b"/><circle cx="368.0" cy="524.0" r="4.05" fill="#10232b"/>
<text x="368.00" y="512.00" fill="#fff6d1" font-size="10" text-anchor="middle">1 +</text>
<circle cx="413.0" cy="524.0" r="9.0" fill="#ecc77b"/><circle cx="413.0" cy="524.0" r="4.05" fill="#10232b"/>
<text x="413.00" y="512.00" fill="#fff6d1" font-size="10" text-anchor="middle">2 -</text>
<circle cx="521.0" cy="479.0" r="9.0" fill="#ecc77b"/><circle cx="521.0" cy="479.0" r="4.05" fill="#10232b"/>
<text x="521.00" y="467.00" fill="#fff6d1" font-size="10" text-anchor="middle">1 +</text>
<circle cx="566.0" cy="479.0" r="9.0" fill="#ecc77b"/><circle cx="566.0" cy="479.0" r="4.05" fill="#10232b"/>
<text x="566.00" y="467.00" fill="#fff6d1" font-size="10" text-anchor="middle">2 -</text>
<circle cx="188.0" cy="380.0" r="10.799999999999999" fill="#ecc77b"/><circle cx="188.0" cy="380.0" r="4.5" fill="#10232b"/>
<text x="188.00" y="368.00" fill="#fff6d1" font-size="10" text-anchor="middle">1</text>
<circle cx="368.0" cy="380.0" r="10.799999999999999" fill="#ecc77b"/><circle cx="368.0" cy="380.0" r="4.5" fill="#10232b"/>
<text x="368.00" y="368.00" fill="#fff6d1" font-size="10" text-anchor="middle">2</text>
<circle cx="152.0" cy="317.0" r="8.1" fill="#ecc77b"/><circle cx="152.0" cy="317.0" r="3.6" fill="#10232b"/>
<text x="152.00" y="305.00" fill="#fff6d1" font-size="10" text-anchor="middle">1</text>
<circle cx="197.0" cy="317.0" r="8.1" fill="#ecc77b"/><circle cx="197.0" cy="317.0" r="3.6" fill="#10232b"/>
<text x="197.00" y="305.00" fill="#fff6d1" font-size="10" text-anchor="middle">2</text>
<circle cx="170.0" cy="560.0" r="13.5" fill="#ecc77b"/><circle cx="170.0" cy="560.0" r="5.8500000000000005" fill="#10232b"/>
<text x="170.00" y="548.00" fill="#fff6d1" font-size="10" text-anchor="middle">1</text>
<circle cx="170.0" cy="740.0" r="13.5" fill="#ecc77b"/><circle cx="170.0" cy="740.0" r="5.8500000000000005" fill="#10232b"/>
<text x="170.00" y="728.00" fill="#fff6d1" font-size="10" text-anchor="middle">2</text>
<circle cx="287.0" cy="560.0" r="10.799999999999999" fill="#ecc77b"/><circle cx="287.0" cy="560.0" r="4.5" fill="#10232b"/>
<text x="287.00" y="548.00" fill="#fff6d1" font-size="10" text-anchor="middle">1</text>
<circle cx="287.0" cy="740.0" r="10.799999999999999" fill="#ecc77b"/><circle cx="287.0" cy="740.0" r="4.5" fill="#10232b"/>
<text x="287.00" y="728.00" fill="#fff6d1" font-size="10" text-anchor="middle">2</text>
<circle cx="746.0" cy="623.0" r="8.1" fill="#ecc77b"/><circle cx="746.0" cy="623.0" r="3.6" fill="#10232b"/>
<text x="746.00" y="611.00" fill="#fff6d1" font-size="10" text-anchor="middle">1</text>
<circle cx="813.5" cy="623.0" r="8.1" fill="#ecc77b"/><circle cx="813.5" cy="623.0" r="3.6" fill="#10232b"/>
<text x="813.50" y="611.00" fill="#fff6d1" font-size="10" text-anchor="middle">2</text>
<circle cx="746.0" cy="722.0" r="9.0" fill="#ecc77b"/><circle cx="746.0" cy="722.0" r="4.05" fill="#10232b"/>
<text x="746.00" y="710.00" fill="#fff6d1" font-size="10" text-anchor="middle">1 +</text>
<circle cx="777.5" cy="722.0" r="9.0" fill="#ecc77b"/><circle cx="777.5" cy="722.0" r="4.05" fill="#10232b"/>
<text x="777.50" y="710.00" fill="#fff6d1" font-size="10" text-anchor="middle">2 -</text>
<circle cx="872.0" cy="677.0" r="8.1" fill="#ecc77b"/><circle cx="872.0" cy="677.0" r="4.5" fill="#10232b"/>
<text x="872.00" y="665.00" fill="#fff6d1" font-size="10" text-anchor="middle">1</text>
<circle cx="872.0" cy="699.86" r="8.1" fill="#ecc77b"/><circle cx="872.0" cy="699.86" r="4.5" fill="#10232b"/>
<text x="872.00" y="687.86" fill="#fff6d1" font-size="10" text-anchor="middle">2</text>
<circle cx="602" cy="317" r="4.05" fill="#ecc77b"/><circle cx="602" cy="317" r="1.8" fill="#10232b"/>
<circle cx="260" cy="515" r="4.05" fill="#ecc77b"/><circle cx="260" cy="515" r="1.8" fill="#10232b"/>
<circle cx="260" cy="596" r="4.05" fill="#ecc77b"/><circle cx="260" cy="596" r="1.8" fill="#10232b"/>
<circle cx="116" cy="191" r="14.4" fill="#101e28" stroke="#bfcccf"/>
<circle cx="944" cy="191" r="14.4" fill="#101e28" stroke="#bfcccf"/>
<circle cx="944" cy="929" r="14.4" fill="#101e28" stroke="#bfcccf"/>
<circle cx="116" cy="929" r="14.4" fill="#101e28" stroke="#bfcccf"/>
<text x="60.00" y="997.00" fill="#f2bd76" font-size="18" text-anchor="start">暫定封裝｜工程審查圖，非製造版</text>
<text x="60.00" y="1026.00" fill="#c6d9df" font-size="15" text-anchor="start">極性與接頭用途：請搭配逐腳對照表閱讀。</text>
<text x="60.00" y="1052.00" fill="#c6d9df" font-size="14" text-anchor="start">編號是導讀標示，不是實際絲印。圖片不可直接作為製板底片。</text>
<text x="60.00" y="1077.00" fill="#c6d9df" font-size="14" text-anchor="start">板厚暫定 1.6 mm；固定孔、實物腳距及高度尚待核對。</text>
</g></svg>