<?xml version="1.0" standalone="no"?>
 <!DOCTYPE svg PUBLIC "-//W3C//DTD SVG 1.1//EN"
 "http://www.w3.org/Graphics/SVG/1.1/DTD/svg11.dtd">
<svg
  xmlns:svg="http://www.w3.org/2000/svg"
  xmlns="http://www.w3.org/2000/svg"
  xmlns:xlink="http://www.w3.org/1999/xlink"
  xmlns:inkscape="http://www.inkscape.org/namespaces/inkscape"
  version="1.1"
  width="124.9934mm" height="129.9972mm" viewBox="0.0000 0.0000 124.9934 129.9972">
<title>SVG Image created as psu-bottom.svg date 2026-10-01T13:25:55 </title>
  <desc>Image generated by PCBNEW </desc>
<g style="fill:#000000; fill-opacity:1.0000;stroke:#000000; stroke-opacity:1.0000;
stroke-linecap:round; stroke-linejoin:round;"
 transform="translate(0 0) scale(1 1)">
</g>
<g style="fill:#4D7FC4; fill-opacity:1.0000; stroke:none;">
<circle cx="5.9934" cy="13.0000" r="1.5000" />
<circle cx="5.9934" cy="18.0800" r="1.5000" />
<circle cx="6.9934" cy="67.0000" r="1.2000" />
<circle cx="6.9934" cy="87.0000" r="1.2000" />
<circle cx="89.9934" cy="93.0000" r="2.0000" />
<circle cx="89.9934" cy="83.0000" r="2.0000" />
<circle cx="6.9934" cy="47.0000" r="1.0000" />
<circle cx="6.9934" cy="62.0000" r="1.0000" />
<circle cx="56.9934" cy="109.0000" r="0.9000" />
<circle cx="51.9934" cy="109.0000" r="0.9000" />
<circle cx="34.9934" cy="45.0000" r="2.0000" />
<circle cx="34.9934" cy="55.0000" r="2.0000" />
<circle cx="109.9934" cy="6.0000" r="1.5000" />
<circle cx="84.9934" cy="6.0000" r="1.5000" />
</g>
<g style="fill:none;
stroke:#4D7FC4; stroke-width:2.6000; stroke-opacity:1;
stroke-linecap:round; stroke-linejoin:round;">
<path d="M96.5934 23.0000
L95.3934 23.0000
" />
<path d="M89.0934 23.0000
L87.8934 23.0000
" />
<path d="M81.5934 23.0000
L80.3934 23.0000
" />
<path d="M106.5934 23.0000
L105.3934 23.0000
" />
</g>
<g style="fill:#4D7FC4; fill-opacity:1.0000; stroke:none;">
<circle cx="67.9934" cy="60.0000" r="1.2000" />
<circle cx="67.9934" cy="80.0000" r="1.2000" />
<circle cx="118.9934" cy="13.0000" r="1.5000" />
<circle cx="118.9934" cy="18.0800" r="1.5000" />
<circle cx="34.9934" cy="93.0000" r="2.0000" />
<circle cx="34.9934" cy="83.0000" r="2.0000" />
</g>
<g style="fill:none;
stroke:#4D7FC4; stroke-width:2.6000; stroke-opacity:1;
stroke-linecap:round; stroke-linejoin:round;">
<path d="M34.5934 23.0000
L33.3934 23.0000
" />
<path d="M27.0934 23.0000
L25.8934 23.0000
" />
<path d="M19.5934 23.0000
L18.3934 23.0000
" />
<path d="M44.5934 23.0000
L43.3934 23.0000
" />
</g>
<g style="fill:#4D7FC4; fill-opacity:1.0000; stroke:none;">
<circle cx="117.9934" cy="27.0000" r="1.0000" />
<circle cx="117.9934" cy="42.0000" r="1.0000" />
<circle cx="6.9934" cy="27.0000" r="1.0000" />
<circle cx="6.9934" cy="42.0000" r="1.0000" />
<circle cx="43.9934" cy="118.0000" r="1.5000" />
<circle cx="38.9134" cy="118.0000" r="1.5000" />
<circle cx="33.8334" cy="118.0000" r="1.5000" />
<circle cx="117.9934" cy="67.0000" r="1.2000" />
<circle cx="117.9934" cy="87.0000" r="1.2000" />
<circle cx="89.9934" cy="45.0000" r="2.0000" />
<circle cx="89.9934" cy="55.0000" r="2.0000" />
<circle cx="14.9934" cy="6.0000" r="1.5000" />
<circle cx="39.9934" cy="6.0000" r="1.5000" />
<circle cx="56.9934" cy="60.0000" r="1.2000" />
<circle cx="56.9934" cy="80.0000" r="1.2000" />
<circle cx="117.9934" cy="47.0000" r="1.0000" />
<circle cx="117.9934" cy="62.0000" r="1.0000" />
<circle cx="98.9934" cy="118.0000" r="1.5000" />
<circle cx="93.9134" cy="118.0000" r="1.5000" />
<circle cx="88.8334" cy="118.0000" r="1.5000" />
<circle cx="72.9934" cy="109.0000" r="0.9000" />
<circle cx="67.9934" cy="109.0000" r="0.9000" />
</g>
<g style="fill:none;
stroke:#4D7FC4; stroke-width:4.0000; stroke-opacity:1;
stroke-linecap:round; stroke-linejoin:round;">
<path d="M26.4934 30.0000
L26.4934 23.0000
" />
<path d="M5.9934 18.0800
L5.9934 30.0000
" />
</g>
<g style="fill:none;
stroke:#4D7FC4; stroke-width:1.0000; stroke-opacity:1;
stroke-linecap:round; stroke-linejoin:round;">
<path d="M6.9934 27.0000
L6.9934 30.0000
" />
</g>
<g style="fill:none;
stroke:#4D7FC4; stroke-width:4.0000; stroke-opacity:1;
stroke-linecap:round; stroke-linejoin:round;">
<path d="M5.9934 30.0000
L26.4934 30.0000
" />
<path d="M62.4934 113.0000
L38.9134 113.0000
" />
<path d="M43.9934 36.0000
L34.9934 45.0000
" />
<path d="M93.9134 113.0000
L93.9134 118.0000
" />
<path d="M62.4934 109.0000
L62.4934 113.0000
" />
<path d="M62.4934 113.0000
L93.9134 113.0000
" />
<path d="M47.9934 96.0000
L62.4934 109.0000
" />
<path d="M89.9934 83.0000
L76.9934 96.0000
" />
<path d="M62.4934 109.0000
L56.9934 109.0000
" />
<path d="M80.9934 23.0000
L80.9934 55.0000
" />
</g>
<g style="fill:none;
stroke:#4D7FC4; stroke-width:0.8000; stroke-opacity:1;
stroke-linecap:round; stroke-linejoin:round;">
<path d="M84.9934 80.0000
L89.9934 80.0000
" />
</g>
<g style="fill:none;
stroke:#4D7FC4; stroke-width:4.0000; stroke-opacity:1;
stroke-linecap:round; stroke-linejoin:round;">
<path d="M43.9934 23.0000
L43.9934 36.0000
" />
</g>
<g style="fill:none;
stroke:#4D7FC4; stroke-width:0.8000; stroke-opacity:1;
stroke-linecap:round; stroke-linejoin:round;">
<path d="M67.9934 80.0000
L84.9934 80.0000
" />
</g>
<g style="fill:none;
stroke:#4D7FC4; stroke-width:4.0000; stroke-opacity:1;
stroke-linecap:round; stroke-linejoin:round;">
<path d="M45.9934 88.0000
L34.9934 93.0000
" />
<path d="M38.9134 113.0000
L38.9134 118.0000
" />
<path d="M34.9934 45.0000
L45.9934 50.0000
" />
<path d="M76.9934 96.0000
L62.4934 109.0000
" />
<path d="M62.4934 109.0000
L67.9934 109.0000
" />
<path d="M45.9934 50.0000
L45.9934 88.0000
" />
</g>
<g style="fill:none;
stroke:#4D7FC4; stroke-width:0.8000; stroke-opacity:1;
stroke-linecap:round; stroke-linejoin:round;">
<path d="M56.9934 60.0000
L45.9934 60.0000
" />
</g>
<g style="fill:none;
stroke:#4D7FC4; stroke-width:4.0000; stroke-opacity:1;
stroke-linecap:round; stroke-linejoin:round;">
<path d="M89.9934 55.0000
L89.9934 83.0000
" />
<path d="M80.9934 55.0000
L89.9934 55.0000
" />
<path d="M34.9934 93.0000
L47.9934 96.0000
" />
<path d="M118.9934 18.0800
L118.9934 30.0000
" />
</g>
<g style="fill:none;
stroke:#4D7FC4; stroke-width:1.0000; stroke-opacity:1;
stroke-linecap:round; stroke-linejoin:round;">
<path d="M117.9934 27.0000
L117.9934 30.0000
" />
</g>
<g style="fill:none;
stroke:#4D7FC4; stroke-width:4.0000; stroke-opacity:1;
stroke-linecap:round; stroke-linejoin:round;">
<path d="M118.9934 30.0000
L88.4934 30.0000
" />
<path d="M88.4934 30.0000
L88.4934 23.0000
" />
</g>
<g style="fill:none;
stroke:#D0D2CD; stroke-width:0.0500; stroke-opacity:1;
stroke-linecap:round; stroke-linejoin:round;">
<path d="M124.9934 0.0000
L-0.0066 0.0000
" />
<path d="M124.9934 130.0000
L124.9934 0.0000
" />
<path d="M-0.0066 0.0000
L-0.0066 130.0000
" />
<path d="M-0.0066 130.0000
L124.9934 130.0000
" />
</g>
<g style="fill:#FFFFFF; fill-opacity:1.0000; stroke:none;">
<circle cx="5.9934" cy="13.0000" r="0.6500" />
</g>
<g style="fill:#FFFFFF; fill-opacity:1.0000; stroke:none;">
<circle cx="5.9934" cy="18.0800" r="0.6500" />
</g>
<g style="fill:#FFFFFF; fill-opacity:1.0000; stroke:none;">
<circle cx="6.9934" cy="67.0000" r="0.5000" />
</g>
<g style="fill:#FFFFFF; fill-opacity:1.0000; stroke:none;">
<circle cx="6.9934" cy="87.0000" r="0.5000" />
</g>
<g style="fill:#FFFFFF; fill-opacity:1.0000; stroke:none;">
<circle cx="89.9934" cy="93.0000" r="1.2500" />
</g>
<g style="fill:#FFFFFF; fill-opacity:1.0000; stroke:none;">
<circle cx="89.9934" cy="83.0000" r="1.2500" />
</g>
<g style="fill:#FFFFFF; fill-opacity:1.0000; stroke:none;">
<circle cx="6.9934" cy="47.0000" r="0.5000" />
</g>
<g style="fill:#FFFFFF; fill-opacity:1.0000; stroke:none;">
<circle cx="6.9934" cy="62.0000" r="0.5000" />
</g>
<g style="fill:#FFFFFF; fill-opacity:1.0000; stroke:none;">
<circle cx="56.9934" cy="109.0000" r="0.4000" />
</g>
<g style="fill:#FFFFFF; fill-opacity:1.0000; stroke:none;">
<circle cx="51.9934" cy="109.0000" r="0.4000" />
</g>
<g style="fill:#FFFFFF; fill-opacity:1.0000; stroke:none;">
<circle cx="34.9934" cy="45.0000" r="1.2500" />
</g>
<g style="fill:#FFFFFF; fill-opacity:1.0000; stroke:none;">
<circle cx="34.9934" cy="55.0000" r="1.2500" />
</g>
<g style="fill:#FFFFFF; fill-opacity:1.0000; stroke:none;">
<circle cx="109.9934" cy="6.0000" r="0.6500" />
</g>
<g style="fill:#FFFFFF; fill-opacity:1.0000; stroke:none;">
<circle cx="84.9934" cy="6.0000" r="0.6500" />
</g>
<g style="fill:none;
stroke:#FFFFFF; stroke-width:1.4000; stroke-opacity:1;
stroke-linecap:round; stroke-linejoin:round;">
<path d="M96.5934 23.0000
L95.3934 23.0000
" />
</g>
<g style="fill:none;
stroke:#FFFFFF; stroke-width:1.4000; stroke-opacity:1;
stroke-linecap:round; stroke-linejoin:round;">
<path d="M89.0934 23.0000
L87.8934 23.0000
" />
</g>
<g style="fill:none;
stroke:#FFFFFF; stroke-width:1.4000; stroke-opacity:1;
stroke-linecap:round; stroke-linejoin:round;">
<path d="M81.5934 23.0000
L80.3934 23.0000
" />
</g>
<g style="fill:none;
stroke:#FFFFFF; stroke-width:1.4000; stroke-opacity:1;
stroke-linecap:round; stroke-linejoin:round;">
<path d="M106.5934 23.0000
L105.3934 23.0000
" />
</g>
<g style="fill:#FFFFFF; fill-opacity:1.0000; stroke:none;">
<circle cx="67.9934" cy="60.0000" r="0.5000" />
</g>
<g style="fill:#FFFFFF; fill-opacity:1.0000; stroke:none;">
<circle cx="67.9934" cy="80.0000" r="0.5000" />
</g>
<g style="fill:#FFFFFF; fill-opacity:1.0000; stroke:none;">
<circle cx="118.9934" cy="13.0000" r="0.6500" />
</g>
<g style="fill:#FFFFFF; fill-opacity:1.0000; stroke:none;">
<circle cx="118.9934" cy="18.0800" r="0.6500" />
</g>
<g style="fill:#FFFFFF; fill-opacity:1.0000; stroke:none;">
<circle cx="34.9934" cy="93.0000" r="1.2500" />
</g>
<g style="fill:#FFFFFF; fill-opacity:1.0000; stroke:none;">
<circle cx="34.9934" cy="83.0000" r="1.2500" />
</g>
<g style="fill:none;
stroke:#FFFFFF; stroke-width:1.4000; stroke-opacity:1;
stroke-linecap:round; stroke-linejoin:round;">
<path d="M34.5934 23.0000
L33.3934 23.0000
" />
</g>
<g style="fill:none;
stroke:#FFFFFF; stroke-width:1.4000; stroke-opacity:1;
stroke-linecap:round; stroke-linejoin:round;">
<path d="M27.0934 23.0000
L25.8934 23.0000
" />
</g>
<g style="fill:none;
stroke:#FFFFFF; stroke-width:1.4000; stroke-opacity:1;
stroke-linecap:round; stroke-linejoin:round;">
<path d="M19.5934 23.0000
L18.3934 23.0000
" />
</g>
<g style="fill:none;
stroke:#FFFFFF; stroke-width:1.4000; stroke-opacity:1;
stroke-linecap:round; stroke-linejoin:round;">
<path d="M44.5934 23.0000
L43.3934 23.0000
" />
</g>
<g style="fill:#FFFFFF; fill-opacity:1.0000; stroke:none;">
<circle cx="117.9934" cy="27.0000" r="0.5000" />
</g>
<g style="fill:#FFFFFF; fill-opacity:1.0000; stroke:none;">
<circle cx="117.9934" cy="42.0000" r="0.5000" />
</g>
<g style="fill:#000000; fill-opacity:1.0000; stroke:none;">
<circle cx="120.9934" cy="4.0000" r="1.6000" />
<circle cx="120.9934" cy="126.0000" r="1.6000" />
<circle cx="3.9934" cy="126.0000" r="1.6000" />
</g>
<g style="fill:#FFFFFF; fill-opacity:1.0000; stroke:none;">
<circle cx="6.9934" cy="27.0000" r="0.5000" />
</g>
<g style="fill:#FFFFFF; fill-opacity:1.0000; stroke:none;">
<circle cx="6.9934" cy="42.0000" r="0.5000" />
</g>
<g style="fill:#FFFFFF; fill-opacity:1.0000; stroke:none;">
<circle cx="43.9934" cy="118.0000" r="0.6500" />
</g>
<g style="fill:#FFFFFF; fill-opacity:1.0000; stroke:none;">
<circle cx="38.9134" cy="118.0000" r="0.6500" />
</g>
<g style="fill:#FFFFFF; fill-opacity:1.0000; stroke:none;">
<circle cx="33.8334" cy="118.0000" r="0.6500" />
</g>
<g style="fill:#FFFFFF; fill-opacity:1.0000; stroke:none;">
<circle cx="117.9934" cy="67.0000" r="0.5000" />
</g>
<g style="fill:#FFFFFF; fill-opacity:1.0000; stroke:none;">
<circle cx="117.9934" cy="87.0000" r="0.5000" />
</g>
<g style="fill:#FFFFFF; fill-opacity:1.0000; stroke:none;">
<circle cx="89.9934" cy="45.0000" r="1.2500" />
</g>
<g style="fill:#FFFFFF; fill-opacity:1.0000; stroke:none;">
<circle cx="89.9934" cy="55.0000" r="1.2500" />
</g>
<g style="fill:#FFFFFF; fill-opacity:1.0000; stroke:none;">
<circle cx="14.9934" cy="6.0000" r="0.6500" />
</g>
<g style="fill:#FFFFFF; fill-opacity:1.0000; stroke:none;">
<circle cx="39.9934" cy="6.0000" r="0.6500" />
</g>
<g style="fill:#FFFFFF; fill-opacity:1.0000; stroke:none;">
<circle cx="56.9934" cy="60.0000" r="0.5000" />
</g>
<g style="fill:#FFFFFF; fill-opacity:1.0000; stroke:none;">
<circle cx="56.9934" cy="80.0000" r="0.5000" />
</g>
<g style="fill:#000000; fill-opacity:1.0000; stroke:none;">
<circle cx="3.9934" cy="4.0000" r="1.6000" />
</g>
<g style="fill:#FFFFFF; fill-opacity:1.0000; stroke:none;">
<circle cx="117.9934" cy="47.0000" r="0.5000" />
</g>
<g style="fill:#FFFFFF; fill-opacity:1.0000; stroke:none;">
<circle cx="117.9934" cy="62.0000" r="0.5000" />
</g>
<g style="fill:#FFFFFF; fill-opacity:1.0000; stroke:none;">
<circle cx="98.9934" cy="118.0000" r="0.6500" />
</g>
<g style="fill:#FFFFFF; fill-opacity:1.0000; stroke:none;">
<circle cx="93.9134" cy="118.0000" r="0.6500" />
</g>
<g style="fill:#FFFFFF; fill-opacity:1.0000; stroke:none;">
<circle cx="88.8334" cy="118.0000" r="0.6500" />
</g>
<g style="fill:#FFFFFF; fill-opacity:1.0000; stroke:none;">
<circle cx="72.9934" cy="109.0000" r="0.4000" />
</g>
<g style="fill:#FFFFFF; fill-opacity:1.0000; stroke:none;">
<circle cx="67.9934" cy="109.0000" r="0.4000" />
</g>
</svg>
